<?xml version="1.0" encoding="utf-8"?>
<!-- Generator: Adobe Illustrator 16.0.0, SVG Export Plug-In . SVG Version: 6.00 Build 0)  -->
<!DOCTYPE svg PUBLIC "-//W3C//DTD SVG 1.1//EN" "http://www.w3.org/Graphics/SVG/1.1/DTD/svg11.dtd">
<svg version="1.1" id="圖層_1" xmlns="http://www.w3.org/2000/svg" xmlns:xlink="http://www.w3.org/1999/xlink" x="0px" y="0px"
	 width="99px" height="198px" viewBox="0 0 99 198" enable-background="new 0 0 99 198" xml:space="preserve">
<g>
	<path fill="#68B8CF" d="M49.5,98.457C22.757,98.457,1,76.7,1,49.957s21.757-48.5,48.5-48.5c26.743,0,48.5,21.757,48.5,48.5
		S76.243,98.457,49.5,98.457z M49.5,3.457C23.86,3.457,3,24.316,3,49.957c0,25.641,20.86,46.5,46.5,46.5
		c25.64,0,46.5-20.859,46.5-46.5C96,24.316,75.141,3.457,49.5,3.457z"/>
</g>
<path fill-rule="evenodd" clip-rule="evenodd" fill="#2769B5" d="M64.99,14.291v11.054c0,0-8.148-0.812-10.189,2.312
	c-1.115,1.705-0.453,6.703-0.551,10.292h10.805c-0.912,4.195-1.566,7.04-2.238,10.671h-8.627V82.96H39.218
	c0.003-10.588-0.002-22.939,0-34.207h-6.37V37.948h6.3c0.323-7.9,0.445-15.729,4.369-19.714
	C47.928,13.753,52.135,14.291,64.99,14.291"/>
<g>
	<path fill="#89D3D2" d="M49.5,197.456c-26.743,0-48.5-21.757-48.5-48.5s21.757-48.5,48.5-48.5c26.743,0,48.5,21.757,48.5,48.5
		S76.243,197.456,49.5,197.456z M49.5,102.456c-25.641,0-46.5,20.86-46.5,46.5c0,25.641,20.86,46.5,46.5,46.5
		c25.64,0,46.5-20.859,46.5-46.5C96,123.316,75.141,102.456,49.5,102.456z"/>
</g>
<path fill-rule="evenodd" clip-rule="evenodd" fill="#89D3D2" d="M64.99,113.29v11.054c0,0-8.148-0.813-10.189,2.312
	c-1.115,1.705-0.453,6.703-0.551,10.292h10.805c-0.912,4.195-1.566,7.04-2.238,10.672h-8.627v34.341H39.218
	c0.003-10.588-0.002-22.939,0-34.207h-6.37v-10.806h6.3c0.323-7.9,0.445-15.729,4.369-19.715
	C47.928,112.753,52.135,113.29,64.99,113.29"/>
</svg>
