<?xml version="1.0" encoding="utf-8"?>
<!-- Generator: Adobe Illustrator 16.0.0, SVG Export Plug-In . SVG Version: 6.00 Build 0)  -->
<!DOCTYPE svg PUBLIC "-//W3C//DTD SVG 1.1//EN" "http://www.w3.org/Graphics/SVG/1.1/DTD/svg11.dtd">
<svg version="1.1" id="圖層_4" xmlns="http://www.w3.org/2000/svg" xmlns:xlink="http://www.w3.org/1999/xlink" x="0px" y="0px"
	 width="99px" height="198px" viewBox="0 0 99 198" enable-background="new 0 0 99 198" xml:space="preserve">
<g>
	<path fill="#68B8CF" d="M49.5,98.457C22.757,98.457,1,76.7,1,49.957c0-26.743,21.757-48.5,48.5-48.5S98,23.214,98,49.957
		C98,76.7,76.243,98.457,49.5,98.457z M49.5,3.457c-25.64,0-46.5,20.86-46.5,46.5c0,25.64,20.86,46.5,46.5,46.5
		c25.641,0,46.5-20.859,46.5-46.5C96,24.316,75.141,3.457,49.5,3.457z"/>
</g>
<g>
	<g>
		<path fill="#00C300" d="M84.722,45.978c0-15.759-15.799-28.581-35.221-28.581c-19.419,0-35.222,12.822-35.222,28.581
			c0,14.128,12.531,25.965,29.457,28.202c1.146,0.245,2.707,0.759,3.102,1.738c0.357,0.888,0.234,2.281,0.115,3.181
			c0,0-0.413,2.487-0.502,3.019c-0.154,0.889-0.709,3.48,3.05,1.896c3.759-1.583,20.283-11.943,27.672-20.451H77.17
			C82.277,57.968,84.722,52.287,84.722,45.978z M35.713,55.355h-6.998c-1.018,0-1.846-0.828-1.846-1.849V39.511
			c0-1.018,0.828-1.848,1.846-1.848c1.02,0,1.846,0.83,1.846,1.848v12.149h5.152c1.02,0,1.847,0.828,1.847,1.846
			C37.56,54.527,36.732,55.355,35.713,55.355z M42.951,53.506c0,1.021-0.828,1.849-1.846,1.849s-1.846-0.828-1.846-1.849V39.511
			c0-1.018,0.828-1.848,1.846-1.848s1.846,0.83,1.846,1.848V53.506z M59.799,53.506c0,0.799-0.507,1.502-1.264,1.754
			c-0.189,0.063-0.389,0.095-0.586,0.095c-0.577,0-1.127-0.275-1.475-0.74l-7.174-9.765v8.656c0,1.021-0.827,1.849-1.846,1.849
			c-1.02,0-1.848-0.828-1.848-1.849V39.511c0-0.795,0.508-1.499,1.264-1.752c0.189-0.063,0.387-0.096,0.585-0.096
			c0.576,0,1.13,0.276,1.475,0.741l7.175,9.769v-8.662c0-1.018,0.828-1.848,1.846-1.848c1.02,0,1.848,0.83,1.848,1.848V53.506z
			 M71.123,44.664c1.018,0,1.846,0.826,1.846,1.848c0,1.017-0.828,1.846-1.846,1.846h-5.151v3.304h5.151
			c1.016,0,1.846,0.828,1.846,1.846c0,1.021-0.83,1.849-1.846,1.849h-7c-1.017,0-1.846-0.828-1.846-1.849v-6.991
			c0-0.002,0-0.002,0-0.004c0,0,0-0.004,0-0.005v-6.995c0-1.018,0.828-1.848,1.846-1.848h7c1.018,0,1.846,0.83,1.846,1.848
			c0,1.02-0.828,1.848-1.846,1.848h-5.151v3.305H71.123z"/>
	</g>
</g>
<g>
	<path fill="#89D3D2" d="M49.5,197.456c-26.743,0-48.5-21.757-48.5-48.499c0-26.744,21.757-48.501,48.5-48.501
		S98,122.213,98,148.957C98,175.699,76.243,197.456,49.5,197.456z M49.5,102.456c-25.64,0-46.5,20.86-46.5,46.501
		c0,25.64,20.86,46.499,46.5,46.499c25.641,0,46.5-20.859,46.5-46.499C96,123.316,75.141,102.456,49.5,102.456z"/>
</g>
<g>
	<g>
		<path fill="#89D3D2" d="M84.722,144.978c0-15.759-15.799-28.581-35.221-28.581c-19.419,0-35.222,12.822-35.222,28.581
			c0,14.128,12.531,25.965,29.457,28.202c1.146,0.245,2.707,0.759,3.102,1.738c0.357,0.888,0.234,2.281,0.115,3.181
			c0,0-0.413,2.487-0.502,3.019c-0.154,0.889-0.709,3.48,3.05,1.896c3.759-1.583,20.283-11.943,27.672-20.451H77.17
			C82.277,156.968,84.722,151.286,84.722,144.978z M35.713,154.354h-6.998c-1.018,0-1.846-0.828-1.846-1.849v-13.995
			c0-1.018,0.828-1.848,1.846-1.848c1.02,0,1.846,0.83,1.846,1.848v12.149h5.152c1.02,0,1.847,0.828,1.847,1.846
			C37.56,153.526,36.732,154.354,35.713,154.354z M42.951,152.506c0,1.021-0.828,1.849-1.846,1.849s-1.846-0.828-1.846-1.849
			v-13.995c0-1.018,0.828-1.848,1.846-1.848s1.846,0.83,1.846,1.848V152.506z M59.799,152.506c0,0.799-0.507,1.502-1.264,1.754
			c-0.189,0.063-0.389,0.095-0.586,0.095c-0.577,0-1.127-0.275-1.475-0.74l-7.174-9.765v8.656c0,1.021-0.827,1.849-1.846,1.849
			c-1.02,0-1.848-0.828-1.848-1.849v-13.995c0-0.795,0.508-1.499,1.264-1.752c0.189-0.063,0.387-0.096,0.585-0.096
			c0.576,0,1.13,0.276,1.475,0.741l7.175,9.769v-8.662c0-1.018,0.828-1.848,1.846-1.848c1.02,0,1.848,0.83,1.848,1.848V152.506z
			 M71.123,143.663c1.018,0,1.846,0.826,1.846,1.848c0,1.017-0.828,1.846-1.846,1.846h-5.151v3.304h5.151
			c1.016,0,1.846,0.828,1.846,1.846c0,1.021-0.83,1.849-1.846,1.849h-7c-1.017,0-1.846-0.828-1.846-1.849v-6.991
			c0-0.002,0-0.002,0-0.004c0,0,0-0.004,0-0.005v-6.987c0-0.005,0-0.006,0-0.008c0-1.018,0.828-1.848,1.846-1.848h7
			c1.018,0,1.846,0.83,1.846,1.848c0,1.02-0.828,1.848-1.846,1.848h-5.151v3.305H71.123z"/>
	</g>
</g>
</svg>
