<?xml version="1.0" encoding="utf-8"?>
<!-- Generator: Adobe Illustrator 16.0.0, SVG Export Plug-In . SVG Version: 6.00 Build 0)  -->
<!DOCTYPE svg PUBLIC "-//W3C//DTD SVG 1.1//EN" "http://www.w3.org/Graphics/SVG/1.1/DTD/svg11.dtd">
<svg version="1.1" id="圖層_3" xmlns="http://www.w3.org/2000/svg" xmlns:xlink="http://www.w3.org/1999/xlink" x="0px" y="0px"
	 width="99px" height="198px" viewBox="0 0 99 198" enable-background="new 0 0 99 198" xml:space="preserve">
<g>
	<path fill="#68B8CF" d="M49.502,98.457C22.758,98.457,1,76.7,1,49.957c0-26.743,21.758-48.5,48.502-48.5
		C76.244,1.457,98,23.214,98,49.957C98,76.7,76.244,98.457,49.502,98.457z M49.502,3.457C23.861,3.457,3,24.316,3,49.957
		c0,25.64,20.861,46.5,46.502,46.5C75.141,96.457,96,75.597,96,49.957C96,24.316,75.141,3.457,49.502,3.457z"/>
</g>
<g>
	<polygon fill="#4FB2D9" points="82.5,29.094 82.5,26.957 16.5,26.957 16.5,29.723 49.49,55.381 	"/>
	<polygon fill="#4FB2D9" points="16.5,33.524 16.5,71.606 38.395,50.553 	"/>
	<polygon fill="#4FB2D9" points="82.5,71.286 82.5,32.929 60.68,50.305 	"/>
	<polygon fill="#4FB2D9" points="49.512,59.199 40.789,52.415 19.424,72.957 79.91,72.957 58.313,52.191 	"/>
</g>
<g>
	<path fill="#89D3D2" d="M49.502,197.456C22.758,197.456,1,175.699,1,148.957c0-26.744,21.758-48.501,48.502-48.501
		c26.742,0,48.498,21.757,48.498,48.501C98,175.699,76.244,197.456,49.502,197.456z M49.502,102.456
		C23.861,102.456,3,123.316,3,148.957c0,25.64,20.861,46.499,46.502,46.499c25.639,0,46.498-20.859,46.498-46.499
		C96,123.316,75.141,102.456,49.502,102.456z"/>
</g>
<g>
	<polygon fill="#89D3D2" points="82.5,128.094 82.5,125.956 16.5,125.956 16.5,128.723 49.49,154.381 	"/>
	<polygon fill="#89D3D2" points="16.5,132.523 16.5,170.605 38.395,149.553 	"/>
	<polygon fill="#89D3D2" points="82.5,170.285 82.5,131.929 60.68,149.305 	"/>
	<polygon fill="#89D3D2" points="49.512,158.198 40.789,151.414 19.424,171.956 79.91,171.956 58.313,151.19 	"/>
</g>
</svg>
