<?xml version="1.0" encoding="utf-8"?>
<!-- Generator: Adobe Illustrator 16.0.0, SVG Export Plug-In . SVG Version: 6.00 Build 0)  -->
<!DOCTYPE svg PUBLIC "-//W3C//DTD SVG 1.1//EN" "http://www.w3.org/Graphics/SVG/1.1/DTD/svg11.dtd">
<svg version="1.1" id="圖層_2" xmlns="http://www.w3.org/2000/svg" xmlns:xlink="http://www.w3.org/1999/xlink" x="0px" y="0px"
	 width="99px" height="198px" viewBox="0 0 99 198" enable-background="new 0 0 99 198" xml:space="preserve">
<g>
	<path fill="#68B8CF" d="M49.502,98.457C22.758,98.457,1,76.7,1,49.957c0-26.743,21.758-48.5,48.502-48.5
		C76.244,1.457,98,23.214,98,49.957C98,76.7,76.244,98.457,49.502,98.457z M49.502,3.457C23.861,3.457,3,24.316,3,49.957
		c0,25.64,20.861,46.5,46.502,46.5C75.141,96.457,96,75.597,96,49.957C96,24.316,75.141,3.457,49.502,3.457z"/>
</g>
<g>
	<path fill="#4FB2D9" d="M32.979,56.735v25.333c0,1.656,1.343,3,3,3h28c1.657,0,3-1.344,3-3V56.735H32.979z M61.479,79.068h-23v-4
		h23V79.068z M61.479,73.068h-23v-4h23V73.068z M61.479,66.068h-23v-4h23V66.068z"/>
	<path fill="#4FB2D9" d="M66.688,19.068c0-1.657-1.343-3-3-3h-29c-1.657,0-3,1.343-3,3v9.334h35V19.068z"/>
	<path fill="#4FB2D9" d="M80.354,32.068h-62c-1.657,0-3,1.343-3,3v31c0,1.656,1.343,3,3,3h10.334v-16h41.333v16h10.333
		c1.657,0,3-1.344,3-3v-31C83.354,33.411,82.012,32.068,80.354,32.068z M24.604,45.568c-1.979,0-3.583-1.604-3.583-3.583
		c0-1.979,1.604-3.583,3.583-3.583c1.979,0,3.583,1.604,3.583,3.583C28.188,43.963,26.584,45.568,24.604,45.568z"/>
</g>
<g>
	<path fill="#89D3D2" d="M49.502,197.456C22.758,197.456,1,175.699,1,148.957c0-26.744,21.758-48.501,48.502-48.501
		c26.742,0,48.498,21.757,48.498,48.501C98,175.699,76.244,197.456,49.502,197.456z M49.502,102.456
		C23.861,102.456,3,123.316,3,148.957c0,25.64,20.861,46.499,46.502,46.499c25.639,0,46.498-20.859,46.498-46.499
		C96,123.316,75.141,102.456,49.502,102.456z"/>
</g>
<g>
	<path fill="#89D3D2" d="M32.979,155.734v25.333c0,1.656,1.343,3,3,3h28c1.657,0,3-1.344,3-3v-25.333H32.979z M61.479,178.067h-23
		v-4h23V178.067z M61.479,172.067h-23v-4h23V172.067z M61.479,165.067h-23v-4h23V165.067z"/>
	<path fill="#89D3D2" d="M66.688,118.067c0-1.657-1.343-3-3-3h-29c-1.657,0-3,1.343-3,3v9.334h35V118.067z"/>
	<path fill="#89D3D2" d="M80.354,131.067h-62c-1.657,0-3,1.343-3,3v31c0,1.656,1.343,3,3,3h10.334v-16h41.333v16h10.333
		c1.657,0,3-1.344,3-3v-31C83.354,132.41,82.012,131.067,80.354,131.067z M24.604,144.567c-1.979,0-3.583-1.604-3.583-3.583
		c0-1.979,1.604-3.583,3.583-3.583c1.979,0,3.583,1.604,3.583,3.583C28.188,142.963,26.584,144.567,24.604,144.567z"/>
</g>
</svg>
