<?xml version="1.0" encoding="utf-8"?>
<!-- Generator: Adobe Illustrator 16.0.0, SVG Export Plug-In . SVG Version: 6.00 Build 0)  -->
<!DOCTYPE svg PUBLIC "-//W3C//DTD SVG 1.1//EN" "http://www.w3.org/Graphics/SVG/1.1/DTD/svg11.dtd">
<svg version="1.1" id="圖層_1" xmlns="http://www.w3.org/2000/svg" xmlns:xlink="http://www.w3.org/1999/xlink" x="0px" y="0px"
	 width="16px" height="16px" viewBox="0 0 16 16" enable-background="new 0 0 16 16" xml:space="preserve">
<g>
	<g>
		<path fill="#AABEC8" d="M7.181,15.181C3.222,15.181,0,11.958,0,8c0-3.96,3.221-7.181,7.18-7.181c0.682,0,1.356,0.096,2.006,0.283
			l-0.22,0.757C8.39,1.691,7.788,1.606,7.181,1.606C3.656,1.606,0.788,4.475,0.788,8c0,3.524,2.868,6.394,6.393,6.394
			c3.157,0,5.812-2.258,6.313-5.369l0.776,0.125C13.707,12.644,10.726,15.181,7.181,15.181z"/>
	</g>
	<path fill="#AABEC8" d="M7.278,9.108L3.974,5.803L2.872,6.905l4.406,4.406L16,2.589l-1.102-1.102L7.278,9.108z"/>
</g>
</svg>
