<?xml version="1.0" encoding="utf-8"?>
<!-- Generator: Adobe Illustrator 16.0.0, SVG Export Plug-In . SVG Version: 6.00 Build 0)  -->
<!DOCTYPE svg PUBLIC "-//W3C//DTD SVG 1.1//EN" "http://www.w3.org/Graphics/SVG/1.1/DTD/svg11.dtd">
<svg version="1.1" id="圖層_1" xmlns="http://www.w3.org/2000/svg" xmlns:xlink="http://www.w3.org/1999/xlink" x="0px" y="0px"
	 width="436px" height="146px" viewBox="0 0 436 146" enable-background="new 0 0 436 146" xml:space="preserve">
<g>
	<path fill="#4D4D4D" d="M7.974,2.106c1.358,1.19,2.969,2.899,3.698,4.062l-0.882,0.63c-0.21-0.364-0.504-0.771-0.854-1.205
		C1.936,6.042,1.124,6.07,0.578,6.266C0.536,6.042,0.354,5.524,0.241,5.244c0.308-0.056,0.672-0.364,1.135-0.827
		c0.504-0.448,2.129-2.213,3.222-3.95L5.62,0.929C4.514,2.442,3.267,3.885,2.034,5.047l7.144-0.35
		C8.534,3.969,7.819,3.241,7.147,2.638L7.974,2.106z M1.32,7.443h8.909v5.827H9.136v-0.728H2.371v0.756H1.32V7.443z M2.371,8.438
		v3.096h6.766V8.438H2.371z"/>
	<path fill="#4D4D4D" d="M15.334,6.574c-0.406-0.448-1.289-1.079-2.003-1.471l0.588-0.7c0.729,0.35,1.611,0.952,2.045,1.387
		L15.334,6.574z M13.597,12.598c0.504-1.079,1.232-2.886,1.751-4.455l0.812,0.546c-0.462,1.457-1.079,3.166-1.625,4.44
		L13.597,12.598z M15.572,2.946c-0.378-0.462-1.232-1.121-1.933-1.555l0.602-0.687c0.701,0.392,1.569,1.022,1.961,1.485
		L15.572,2.946z M17.127,5.678c-0.14,0.687-0.35,1.443-0.616,1.933c-0.112-0.098-0.378-0.266-0.519-0.336
		c0.266-0.504,0.42-1.121,0.532-1.737L17.127,5.678z M19.004,5.118c-0.042-0.126-0.098-0.28-0.168-0.435
		c-1.905,0.266-2.228,0.336-2.423,0.435c-0.028-0.126-0.154-0.406-0.238-0.546c0.21-0.028,0.406-0.21,0.645-0.49
		c0.154-0.14,0.504-0.546,0.868-1.051c-0.91,0.084-1.148,0.14-1.289,0.196c-0.042-0.126-0.154-0.406-0.238-0.532
		c0.154-0.028,0.28-0.154,0.435-0.35c0.126-0.196,0.644-0.995,0.854-1.737l0.658,0.238c-0.238,0.588-0.603,1.177-0.938,1.639
		l0.924-0.056c0.14-0.21,0.266-0.42,0.378-0.63l0.63,0.266c-0.49,0.798-1.093,1.597-1.723,2.241l1.233-0.154
		c-0.084-0.168-0.182-0.308-0.266-0.462l0.532-0.182c0.28,0.434,0.56,1.022,0.672,1.387L19.004,5.118z M25.503,10.51
		c0,0-0.014,0.294-0.056,0.42c-0.266,1.205-0.546,1.821-0.924,2.102c-0.294,0.21-0.588,0.266-1.051,0.266
		c-0.42,0.014-1.261,0-2.143-0.056c-0.028-0.238-0.14-0.574-0.294-0.799c0.896,0.084,1.807,0.099,2.157,0.099
		c0.309,0,0.448-0.015,0.588-0.112c0.238-0.154,0.42-0.519,0.603-1.205h-7.368c0.224-0.588,0.435-1.4,0.603-2.087h6.317V8.409
		h-6.822V7.737h7.788V9.81h-6.485c-0.056,0.238-0.126,0.476-0.196,0.7H25.503z M17.729,7.373c-0.014-0.448-0.14-1.176-0.308-1.723
		l0.546-0.14c0.182,0.546,0.322,1.232,0.336,1.667L17.729,7.373z M18.976,5.286c0.224,0.49,0.434,1.121,0.504,1.499l-0.532,0.238
		c-0.056-0.406-0.266-1.05-0.49-1.569L18.976,5.286z M22.702,2.554H19.34V1.91h1.485c-0.098-0.336-0.35-0.784-0.546-1.106
		l0.714-0.182c0.224,0.322,0.476,0.813,0.602,1.106L20.979,1.91h1.723V2.554z M19.718,5.174h2.633v2.059h-2.633V5.174z
		 M22.338,3.633H19.76V3.044h2.578V3.633z M19.76,4.081h2.578v0.574H19.76V4.081z M20.405,6.658h1.232V5.734h-1.232V6.658z
		 M23.612,5.622c-0.126,0.686-0.35,1.415-0.602,1.933c-0.112-0.098-0.393-0.28-0.546-0.364c0.28-0.49,0.434-1.106,0.546-1.708
		L23.612,5.622z M25.545,5.16c-0.042-0.154-0.112-0.322-0.196-0.519c-1.919,0.266-2.269,0.351-2.451,0.42
		c-0.042-0.098-0.154-0.392-0.238-0.546c0.21-0.028,0.406-0.196,0.659-0.462c0.154-0.154,0.49-0.56,0.868-1.064
		c-0.924,0.098-1.163,0.14-1.303,0.21c-0.042-0.126-0.154-0.406-0.238-0.546c0.168-0.014,0.266-0.14,0.42-0.35
		c0.154-0.196,0.645-0.981,0.869-1.723l0.658,0.238c-0.238,0.574-0.588,1.163-0.938,1.625l0.925-0.056
		c0.14-0.21,0.266-0.42,0.378-0.63l0.645,0.28c-0.49,0.784-1.107,1.568-1.723,2.227l1.219-0.154
		c-0.084-0.168-0.168-0.308-0.252-0.448l0.504-0.196c0.309,0.462,0.617,1.079,0.729,1.471L25.545,5.16z M24.229,7.485
		c-0.014-0.476-0.154-1.261-0.35-1.863l0.561-0.14c0.196,0.602,0.336,1.358,0.35,1.821L24.229,7.485z M25.447,5.244
		c0.294,0.574,0.532,1.317,0.603,1.765l-0.532,0.252c-0.07-0.49-0.308-1.247-0.575-1.835L25.447,5.244z"/>
	<path fill="#4D4D4D" d="M31.183,7.177c-0.336,1.289-0.827,2.675-1.387,3.712c0.252,0.168,0.546,0.392,0.994,0.658
		c0.967,0.603,2.213,0.7,3.866,0.7c1.779,0,4.034-0.126,5.575-0.294c-0.112,0.28-0.294,0.771-0.308,1.079
		c-1.037,0.069-3.656,0.153-5.295,0.153c-1.821,0-3.026-0.153-4.063-0.771c-0.56-0.336-1.064-0.812-1.387-0.812
		c-0.308,0-0.798,0.869-1.205,1.765l-0.714-0.953c0.574-0.812,1.135-1.457,1.625-1.667c0.448-0.784,0.84-1.849,1.106-2.83h-1.947
		c0.378-0.826,0.84-2.003,1.232-3.082h-1.849V3.899h3.138c-0.35,0.995-0.813,2.157-1.205,3.11h1.177l0.168-0.042L31.183,7.177z
		 M29.068,3.241C28.914,2.652,28.591,1.714,28.367,1l0.938-0.266c0.252,0.7,0.575,1.625,0.757,2.199L29.068,3.241z M33.662,5.594
		c-0.112,1.751-0.448,3.796-1.513,5.267c-0.182-0.182-0.616-0.519-0.869-0.63c1.233-1.723,1.373-4.132,1.373-5.897V1.35
		c2.143-0.126,4.72-0.392,6.093-0.827l0.854,0.771c-1.541,0.476-3.838,0.743-5.911,0.882v2.157v0.294h6.303v0.966h-2.507v5.799
		h-1.051V5.594H33.662z"/>
	<path fill="#4D4D4D" d="M52.663,8.143c-0.519,1.093-1.233,2.087-2.087,2.97c0.588,0.771,1.261,1.205,1.975,1.205
		c0.519,0,0.701-0.462,0.813-2.045c0.224,0.21,0.561,0.42,0.827,0.504c-0.21,1.976-0.588,2.521-1.681,2.521
		c-1.05,0-1.933-0.546-2.675-1.485c-0.729,0.617-1.541,1.149-2.409,1.569c-0.168-0.238-0.448-0.561-0.687-0.784l0.224-0.098h-3.894
		v0.448h-0.827V8.157h5.141v4.132c0.686-0.364,1.331-0.798,1.905-1.302c-0.546-0.967-0.995-2.171-1.345-3.558h-6.387V6.561h6.191
		c-0.364-1.835-0.56-3.908-0.588-6.038h1.023c0,2.199,0.224,4.272,0.588,6.038h2.549C51.052,6.364,50.716,6.168,50.436,6l0.519-0.35
		c-1.401,0.154-1.695,0.21-1.863,0.294c-0.042-0.182-0.168-0.588-0.266-0.813c0.28-0.042,0.603-0.252,1.009-0.574
		c0.21-0.154,0.672-0.546,1.205-1.037c-1.555,0.154-1.835,0.224-2.017,0.294c-0.056-0.182-0.196-0.616-0.294-0.827
		c0.196-0.028,0.406-0.196,0.616-0.42c0.224-0.224,1.008-1.107,1.471-2.003l0.854,0.35c-0.49,0.729-1.079,1.443-1.639,1.989
		l1.751-0.126c0.336-0.322,0.672-0.7,0.953-1.064l0.756,0.42c-0.98,1.065-2.059,2.087-3.124,2.872l2.381-0.224
		c-0.168-0.308-0.336-0.63-0.504-0.896l0.658-0.252c0.42,0.672,0.925,1.555,1.107,2.101l-0.687,0.322
		c-0.07-0.196-0.14-0.406-0.252-0.645l-1.877,0.21c0.504,0.238,1.065,0.616,1.345,0.882l-0.056,0.056h1.555v0.868h-5.057
		c0.294,1.106,0.658,2.073,1.064,2.857c0.714-0.756,1.289-1.597,1.709-2.493L52.663,8.143z M46.388,6.252
		c-0.07-0.182-0.154-0.406-0.252-0.63c-3.208,0.336-3.628,0.406-3.88,0.532c-0.042-0.196-0.168-0.603-0.266-0.827
		c0.28-0.042,0.616-0.252,0.995-0.588c0.224-0.168,0.686-0.56,1.205-1.079c-1.359,0.126-1.639,0.182-1.807,0.266
		c-0.028-0.182-0.182-0.616-0.28-0.84c0.196-0.014,0.393-0.182,0.588-0.42c0.224-0.21,0.98-1.106,1.429-2.003l0.841,0.35
		c-0.462,0.729-1.023,1.443-1.569,2.003l1.526-0.098c0.322-0.336,0.63-0.714,0.911-1.064l0.756,0.406
		c-0.966,1.093-2.017,2.144-3.082,2.928l2.311-0.196c-0.168-0.322-0.336-0.645-0.518-0.925l0.658-0.238
		c0.435,0.672,0.925,1.568,1.107,2.101L46.388,6.252z M43.068,8.872v1.106h1.373V8.872H43.068z M43.068,11.771h1.373v-1.106h-1.373
		V11.771z M46.556,8.872h-1.387v1.106h1.387V8.872z M46.556,11.771v-1.106h-1.387v1.106H46.556z"/>
	<path fill="#4D4D4D" d="M67.587,1.153V13.34h-1.022v-0.645h-9.609v0.645h-0.995V1.153H67.587z M66.565,11.757V2.106h-9.609v9.651
		H66.565z M61.816,9.628c-1.457,0.28-2.942,0.574-4.09,0.785l-0.14-0.785c1.064-0.168,2.62-0.448,4.188-0.729L61.816,9.628z
		 M65.29,5.552c-0.35,1.317-0.882,2.465-1.555,3.432c0.294,0.743,0.672,1.219,1.135,1.289c0.196,0.056,0.336-0.546,0.434-1.443
		c0.168,0.168,0.476,0.378,0.672,0.462c-0.182,1.527-0.658,2.087-1.387,1.807c-0.616-0.126-1.079-0.616-1.457-1.358
		c-0.546,0.63-1.163,1.163-1.849,1.611c-0.126-0.168-0.435-0.504-0.617-0.659c0.827-0.476,1.527-1.092,2.115-1.835
		c-0.378-1.106-0.602-2.549-0.771-4.132h-4.286V3.941h4.216c-0.042-0.49-0.084-0.98-0.112-1.485h0.896
		c0.028,0.504,0.056,0.995,0.084,1.485h3.054v0.785h-2.984c0.112,1.205,0.28,2.325,0.518,3.222c0.448-0.757,0.799-1.625,1.037-2.578
		L65.29,5.552z M61.312,5.608v2.717h-3.096V5.608H61.312z M60.556,6.266h-1.611v1.401h1.611V6.266z M65.01,3.787
		c-0.309-0.308-0.953-0.742-1.499-0.98l0.49-0.518c0.546,0.252,1.19,0.63,1.513,0.953L65.01,3.787z"/>
	<path fill="#4D4D4D" d="M73.785,1.419c-0.392,1.135-0.896,2.521-1.345,3.642c0.98,1.163,1.219,2.171,1.219,3.025
		c0,0.757-0.168,1.359-0.532,1.625c-0.196,0.154-0.448,0.224-0.701,0.266c-0.28,0.028-0.63,0.042-0.924,0.014
		c-0.014-0.252-0.098-0.63-0.252-0.882c0.308,0.014,0.574,0.028,0.798,0.014c0.168-0.014,0.308-0.056,0.406-0.14
		c0.224-0.154,0.294-0.546,0.294-0.966c0-0.771-0.238-1.723-1.205-2.843c0.392-1.009,0.785-2.213,1.064-3.152h-1.793V13.27h-0.91
		V1.083h3.082l0.154-0.056L73.785,1.419z M75.564,5.216c0.196-0.252,0.378-0.519,0.533-0.799c-0.309-0.35-0.785-0.77-1.247-1.121
		c-0.308,0.435-0.644,0.841-0.994,1.177c-0.14-0.14-0.491-0.406-0.687-0.532c0.953-0.827,1.737-2.073,2.185-3.418l0.813,0.182
		c-0.098,0.308-0.21,0.588-0.336,0.883h1.471l0.154-0.028l0.546,0.196c-0.392,1.765-1.135,3.236-2.059,4.328h4.048
		C79.15,4.978,78.45,3.549,78.016,2.05l0.588-0.154v-0.63h2.633l0.168-0.042l0.588,0.35c-0.42,1.148-1.135,2.367-1.863,3.194
		c0.602,0.924,1.316,1.695,2.115,2.157c-0.21,0.168-0.476,0.491-0.616,0.729c-0.574-0.378-1.093-0.896-1.583-1.499v0.798h-4.328
		V6.35c-0.462,0.504-0.966,0.938-1.485,1.261c-0.126-0.196-0.364-0.49-0.56-0.644c0.658-0.406,1.303-0.995,1.863-1.723
		c-0.714,0.126-1.359,0.224-2.003,0.336l-0.126-0.728c0.616-0.056,1.302-0.14,2.143-0.238L75.564,5.216z M76.292,10.132
		c-0.532,0.882-1.331,1.919-1.947,2.578c-0.196-0.154-0.588-0.421-0.841-0.546c0.659-0.63,1.373-1.541,1.863-2.339L76.292,10.132z
		 M78.394,9.124v4.174h-0.98V9.124h-3.067V8.255h7.116v0.868H78.394z M75.452,2.33c-0.07,0.126-0.154,0.252-0.224,0.364
		c0.42,0.322,0.882,0.7,1.232,1.037c0.21-0.435,0.393-0.911,0.546-1.401H75.452z M78.87,2.022c0.21,0.686,0.49,1.359,0.826,1.989
		c0.435-0.574,0.854-1.316,1.135-1.989H78.87z M80.201,9.726c0.7,0.742,1.597,1.765,2.045,2.367l-0.784,0.533
		c-0.448-0.617-1.331-1.681-2.017-2.452L80.201,9.726z"/>
	<path fill="#4D4D4D" d="M88.542,5.622c0,0,0,0.322-0.014,0.476c-0.112,4.581-0.224,6.107-0.561,6.583
		c-0.21,0.294-0.462,0.406-0.798,0.435c-0.308,0.042-0.798,0.042-1.303,0.014c-0.014-0.28-0.112-0.672-0.266-0.924
		c0.504,0.042,0.938,0.056,1.148,0.056c0.168,0,0.28-0.028,0.393-0.196c0.21-0.308,0.336-1.667,0.434-5.491h-1.583
		c-0.056,2.171-0.406,4.595-1.989,6.695c-0.154-0.195-0.504-0.448-0.743-0.588c1.597-2.157,1.779-4.707,1.779-6.738V3.815h-1.499
		v-0.98h5.407v0.98h-2.956v1.807H88.542z M86.216,2.736c-0.14-0.519-0.476-1.317-0.756-1.919l0.882-0.308
		c0.322,0.602,0.659,1.373,0.799,1.891L86.216,2.736z M90.727,3.325c-0.393,0.798-0.869,1.513-1.359,2.073
		c-0.182-0.154-0.588-0.476-0.827-0.63c0.995-1.023,1.751-2.605,2.157-4.258l1.009,0.182c-0.154,0.588-0.351,1.148-0.561,1.681
		h4.833v0.953H90.727z M95.994,6.798c-0.645,0.63-1.485,1.317-2.185,1.807c0.532,1.597,1.303,2.899,2.367,3.642
		c-0.238,0.183-0.561,0.561-0.714,0.841c-1.863-1.401-2.802-4.188-3.278-7.508c-0.42,0.112-0.854,0.21-1.275,0.309v5.715
		l2.102-0.924c0.014,0.28,0.084,0.7,0.154,0.924c-2.563,1.191-2.956,1.373-3.194,1.611c-0.098-0.224-0.378-0.616-0.532-0.784
		c0.196-0.168,0.477-0.504,0.477-1.149V5.244c1.793-0.378,3.824-0.953,4.958-1.513l0.84,0.728c-0.756,0.322-1.681,0.63-2.647,0.896
		c0.126,0.813,0.266,1.611,0.477,2.368c0.602-0.49,1.261-1.079,1.695-1.569L95.994,6.798z"/>
	<path fill="#4D4D4D" d="M102.065,3.857c-0.434,0.714-0.967,1.429-1.541,2.115v7.368h-1.037V7.121
		c-0.532,0.546-1.064,1.051-1.583,1.457c-0.154-0.21-0.519-0.659-0.729-0.869c1.443-1.022,2.956-2.633,3.922-4.216L102.065,3.857z
		 M101.519,0.901c-0.911,1.232-2.339,2.591-3.586,3.474c-0.154-0.224-0.434-0.63-0.616-0.826c1.163-0.785,2.507-2.045,3.208-3.04
		L101.519,0.901z M110.106,6.182h-2.115v5.785c0,0.644-0.154,0.966-0.617,1.134c-0.476,0.154-1.26,0.154-2.633,0.154
		c-0.042-0.28-0.182-0.714-0.336-1.009c0.994,0.028,1.919,0.028,2.185,0.015c0.266-0.015,0.35-0.07,0.35-0.309V6.182h-4.679V5.188
		h7.845V6.182z M109.7,2.344h-6.836V1.363h6.836V2.344z"/>
	<path fill="#4D4D4D" d="M116.08,9.026c-0.294-0.406-0.925-1.149-1.457-1.737v6.009H113.6V7.597c-0.63,0.63-1.289,1.191-1.933,1.611
		c-0.084-0.294-0.322-0.813-0.476-1.009c1.541-0.911,3.166-2.591,4.062-4.328h-3.684V2.918h4.23l0.196-0.042l0.561,0.406
		c-0.42,1.037-1.037,2.059-1.751,2.956c0.56,0.532,1.625,1.625,1.933,1.933L116.08,9.026z M114.356,2.834
		c-0.252-0.519-0.813-1.317-1.317-1.863l0.785-0.462c0.532,0.546,1.121,1.302,1.359,1.807L114.356,2.834z M124.162,11.743v1.022
		h-7.998v-1.022h3.684V5.888h-3.025V4.879h3.025V0.495h1.037v4.384h2.984v1.009h-2.984v5.855H124.162z"/>
	<path fill="#4D4D4D" d="M138.076,6.546c-0.574,1.429-1.359,2.605-2.339,3.544c1.443,1.092,3.292,1.835,5.533,2.185
		c-0.224,0.225-0.504,0.645-0.645,0.938c-2.311-0.448-4.188-1.247-5.673-2.451c-1.541,1.219-3.46,2.003-5.715,2.577
		c-0.112-0.252-0.42-0.714-0.63-0.938c2.241-0.462,4.132-1.205,5.589-2.325c-0.967-0.938-1.709-2.101-2.27-3.46l0.925-0.28
		c0.476,1.19,1.19,2.241,2.101,3.095c0.896-0.854,1.597-1.905,2.059-3.18L138.076,6.546z M140.906,3.465h-12.019V2.442h5.813
		c-0.196-0.49-0.588-1.176-0.924-1.723l0.967-0.336c0.392,0.561,0.84,1.331,1.036,1.807l-0.63,0.252h5.757V3.465z M133.384,4.291
		c-0.938,1.191-2.409,2.438-3.642,3.236c-0.182-0.21-0.574-0.603-0.798-0.785c1.232-0.7,2.605-1.779,3.446-2.843L133.384,4.291z
		 M137.362,3.871c1.275,0.868,2.844,2.129,3.6,3.025l-0.854,0.672c-0.701-0.882-2.255-2.213-3.544-3.096L137.362,3.871z"/>
	<path fill="#4D4D4D" d="M154.206,12.289c0.238,0,0.28-0.196,0.308-1.891c0.182,0.154,0.546,0.294,0.798,0.364
		c-0.07,1.961-0.294,2.409-1.009,2.409h-0.742c-0.784,0-0.966-0.28-0.966-1.219v-3.18h-0.869c-0.196,2.031-0.729,3.628-2.493,4.566
		c-0.126-0.252-0.406-0.603-0.603-0.771h-4.174v0.742h-0.798v-4.72c-0.252,0.336-0.49,0.645-0.756,0.925
		c-0.084-0.154-0.336-0.533-0.49-0.701c0.756-0.756,1.457-1.849,1.877-2.97l0.729,0.225c-0.112,0.294-0.238,0.56-0.364,0.854h1.681
		c-0.112-0.252-0.266-0.518-0.42-0.742l0.672-0.294c0.238,0.308,0.462,0.714,0.602,1.036h1.821v0.757h-1.975v0.84h1.709v0.714
		h-1.709v0.869h1.765v0.728h-1.765v0.98h1.947v0.533c1.275-0.771,1.681-2.018,1.835-3.572h-1.232V1.027h5.183v7.746h-1.317v3.18
		c0,0.294,0.028,0.336,0.225,0.336H154.206z M144.484,2.19h-2.003V1.392h2.003V0.523h0.854V3.03h-0.854V2.19z M143.042,3.296h2.535
		v2.479h-2.535V3.296z M143.7,5.146h1.19V3.927h-1.19V5.146z M146.207,7.681h-1.751v0.84h1.751V7.681z M146.207,9.236h-1.751v0.869
		h1.751V9.236z M144.456,11.813h1.751v-0.98h-1.751V11.813z M148.896,5.762h-2.563V3.296h2.563V5.762z M147.482,3.044h-0.854V0.523
		h0.854v0.869h1.849V2.19h-1.849V3.044z M148.224,3.927h-1.232v1.205h1.232V3.927z M150.479,3.338h3.348V1.98h-3.348V3.338z
		 M150.479,5.594h3.348V4.207h-3.348V5.594z M150.479,7.835h3.348V6.448h-3.348V7.835z"/>
	<path fill="#4D4D4D" d="M157.882,9.6c-0.154,1.205-0.406,2.521-0.7,3.39c-0.168-0.099-0.561-0.225-0.785-0.295
		c0.336-0.854,0.561-2.101,0.672-3.235L157.882,9.6z M160.291,8.928c-0.028-0.238-0.084-0.519-0.154-0.841
		c-2.662,0.519-3.068,0.617-3.292,0.771c-0.056-0.21-0.21-0.658-0.322-0.91c0.294-0.07,0.574-0.406,0.98-0.938
		c0.196-0.238,0.63-0.869,1.121-1.667c-1.4,0.21-1.695,0.28-1.877,0.378c-0.056-0.21-0.21-0.658-0.322-0.924
		c0.238-0.056,0.462-0.336,0.701-0.771c0.266-0.406,1.135-2.017,1.597-3.516l0.938,0.364c-0.518,1.317-1.219,2.689-1.919,3.754
		l1.415-0.14c0.322-0.574,0.658-1.205,0.924-1.821l0.882,0.435c-0.854,1.611-1.877,3.264-2.928,4.538l1.919-0.322
		c-0.084-0.42-0.21-0.841-0.336-1.233l0.743-0.182c0.308,0.896,0.63,2.087,0.728,2.773L160.291,8.928z M159.157,9.446
		c0.182,0.953,0.35,2.157,0.392,2.984l-0.785,0.182c-0.042-0.812-0.196-2.059-0.35-3.011L159.157,9.446z M160.445,9.124
		c0.308,0.743,0.658,1.681,0.798,2.297l-0.742,0.266c-0.154-0.63-0.491-1.597-0.771-2.339L160.445,9.124z M164.003,9.474
		c-0.532,1.022-1.331,2.199-1.975,2.969c-0.182-0.154-0.588-0.462-0.812-0.588c0.658-0.714,1.373-1.765,1.849-2.661L164.003,9.474z
		 M165.81,8.185v5.071h-1.022V8.185h-3.334V7.261h7.606v0.924H165.81z M162.672,4.599h-0.938V2.274h3.208
		c-0.168-0.476-0.392-1.064-0.602-1.527l0.966-0.252c0.28,0.546,0.575,1.261,0.743,1.779h2.941v2.325h-0.98V3.185h-5.337V4.599z
		 M162.827,5.706V4.795h5.028v0.911H162.827z M167.505,9.166c0.63,0.854,1.387,2.045,1.737,2.76l-0.896,0.42
		c-0.35-0.729-1.078-1.947-1.681-2.844L167.505,9.166z"/>
	<path fill="#4D4D4D" d="M170.523,11.477c3.222-2.815,4.707-4.861,4.707-6.625c0-1.177-0.616-2.031-1.891-2.031
		c-0.84,0-1.569,0.518-2.129,1.19l-0.742-0.728c0.84-0.911,1.723-1.513,3.025-1.513c1.835,0,2.983,1.205,2.983,3.04
		c0,2.045-1.611,4.132-4.02,6.415c0.532-0.042,1.163-0.098,1.681-0.098h2.843v1.106h-6.458V11.477z"/>
	<path fill="#4D4D4D" d="M178.909,11.169h2.284V3.507h-1.821V2.694c0.911-0.168,1.569-0.406,2.129-0.729h0.98v9.203h2.059v1.064
		h-5.631V11.169z"/>
	<path fill="#4D4D4D" d="M192.772,9.404h-1.359v2.83h-1.219v-2.83h-4.468v-0.84l4.272-6.598h1.415v6.416h1.359V9.404z
		 M190.195,8.381V5.229c0-0.504,0.056-1.331,0.084-1.863h-0.056c-0.252,0.504-0.532,1.008-0.826,1.513l-2.339,3.502H190.195z"/>
	<path fill="#4D4D4D" d="M193.833,11.477c3.222-2.815,4.707-4.861,4.707-6.625c0-1.177-0.616-2.031-1.891-2.031
		c-0.84,0-1.569,0.518-2.129,1.19l-0.742-0.728c0.84-0.911,1.723-1.513,3.025-1.513c1.835,0,2.983,1.205,2.983,3.04
		c0,2.045-1.611,4.132-4.02,6.415c0.532-0.042,1.163-0.098,1.681-0.098h2.843v1.106h-6.458V11.477z"/>
	<path fill="#4D4D4D" d="M207.99,5.986c0.518,0,0.924,0.406,0.924,0.925c0,0.518-0.406,0.924-0.924,0.924
		c-0.519,0-0.925-0.406-0.925-0.924C207.065,6.392,207.471,5.986,207.99,5.986z"/>
	<path fill="#4D4D4D" d="M216.19,7.219h4.944v5.967h-1.021v-0.63h-2.928v0.756h-0.995V7.219z M217.185,8.227v3.32h2.928v-3.32
		H217.185z M225.842,5.748h-7.62V1.111h7.62V5.748z M224.791,2.106h-5.561v2.647h5.561V2.106z M227.873,7.219v5.995h-1.023v-0.658
		h-3.18v0.756h-1.008V7.219H227.873z M226.85,11.547v-3.32h-3.18v3.32H226.85z"/>
	<path fill="#4D4D4D" d="M233.861,0.845c-0.406,1.022-0.912,2.045-1.471,2.984v9.44h-0.996V5.342
		c-0.461,0.644-0.967,1.232-1.457,1.737c-0.111-0.224-0.406-0.771-0.588-1.008c1.387-1.331,2.732-3.404,3.531-5.519L233.861,0.845z
		 M236.367,9.194c-0.658,1.177-1.582,2.535-2.367,3.432c-0.182-0.168-0.588-0.462-0.813-0.603c0.799-0.813,1.668-2.045,2.256-3.124
		L236.367,9.194z M238.385,8.213v5.098h-1.037V8.213h-4.047V7.261h4.047V5.594h-3.025V1.167h7.215v4.426h-3.152v1.667h3.965v0.953
		H238.385z M235.303,4.669h5.197V2.106h-5.197V4.669z M239.969,8.886c0.896,0.994,1.918,2.297,2.422,3.138l-0.84,0.519
		c-0.477-0.855-1.498-2.228-2.381-3.222L239.969,8.886z"/>
	<path fill="#4D4D4D" d="M244.219,11.169h2.283V3.507h-1.82V2.694c0.91-0.168,1.568-0.406,2.129-0.729h0.98v9.203h2.059v1.064
		h-5.631V11.169z"/>
	<path fill="#4D4D4D" d="M252.27,10.566c0.434,0.49,1.064,0.785,1.723,0.785c1.33,0,2.479-1.093,2.578-4.287
		c-0.617,0.771-1.5,1.275-2.367,1.275c-1.709,0-2.83-1.106-2.83-3.236c0-1.989,1.344-3.334,2.941-3.334
		c1.975,0,3.445,1.625,3.445,4.889c0,4.161-1.793,5.757-3.727,5.757c-1.105,0-1.891-0.448-2.465-1.05L252.27,10.566z M256.555,6.014
		c-0.139-2.115-0.924-3.236-2.24-3.236c-0.98,0-1.736,0.924-1.736,2.325c0,1.387,0.615,2.283,1.834,2.283
		C255.1,7.387,255.869,6.995,256.555,6.014z"/>
	<path fill="#4D4D4D" d="M259.758,11.169h2.283V3.507h-1.82V2.694c0.91-0.168,1.568-0.406,2.129-0.729h0.98v9.203h2.059v1.064
		h-5.631V11.169z"/>
	<path fill="#4D4D4D" d="M267.527,11.169h2.283V3.507h-1.82V2.694c0.91-0.168,1.568-0.406,2.129-0.729h0.98v9.203h2.059v1.064
		h-5.631V11.169z"/>
	<path fill="#4D4D4D" d="M279.15,8.227c0,0-0.014,0.28-0.027,0.42c-0.197,2.689-0.393,3.754-0.756,4.132
		c-0.211,0.253-0.449,0.337-0.813,0.364c-0.281,0.028-0.828,0.028-1.373-0.014c-0.014-0.267-0.113-0.63-0.252-0.868
		c0.531,0.042,1.051,0.056,1.246,0.056c0.209,0,0.336-0.028,0.447-0.14c0.225-0.224,0.393-1.064,0.561-3.109h-1.891v0.014h-0.938
		c0.195-0.616,0.377-1.485,0.531-2.269h-1.205V5.888h5.029v0.924h-2.928c-0.084,0.462-0.195,0.966-0.279,1.415H279.15z
		 M279.375,4.795h-4.035v-3.67h4.035V4.795z M278.549,1.896h-2.41v2.101h2.41V1.896z M281.238,6.827c0,1.919-0.197,4.65-1.416,6.5
		c-0.168-0.168-0.545-0.463-0.783-0.574c1.148-1.723,1.273-4.132,1.273-5.939V3.269h2.746V0.509h0.98v0.98h2.816v0.854h-2.816v0.924
		h2.717l0.154-0.042l0.631,0.168c-0.168,0.827-0.406,1.793-0.588,2.423l-0.771-0.196c0.113-0.393,0.225-0.939,0.295-1.485h-5.238
		V6.827z M283.24,8.578c-0.111,2.227-0.447,3.795-1.961,4.72c-0.125-0.224-0.393-0.532-0.602-0.687
		c1.316-0.77,1.582-2.115,1.666-4.034H283.24z M285.721,7.064c0.252,0,0.672-0.028,0.854-0.07c0.029,0.252,0.057,0.532,0.084,0.771
		c-0.195,0.07-0.545,0.07-0.896,0.07h-1.68c-0.896,0-1.094-0.378-1.094-1.274V6.126l-1.373,0.14l-0.098-0.742l1.471-0.154V4.207
		h0.896v1.064l1.807-0.182l0.1,0.743l-1.906,0.196v0.533c0,0.378,0.057,0.504,0.352,0.504H285.721z M286.182,12.065
		c0.154,0,0.295-0.014,0.365-0.056c0.084-0.056,0.168-0.154,0.195-0.294c0.029-0.224,0.057-0.757,0.043-1.401
		c0.182,0.168,0.504,0.35,0.77,0.42c-0.014,0.659-0.07,1.359-0.139,1.597c-0.084,0.253-0.225,0.421-0.422,0.532
		c-0.182,0.085-0.49,0.141-0.729,0.141h-0.756c-0.309,0-0.631-0.056-0.826-0.225c-0.225-0.182-0.266-0.378-0.266-1.022v-3.18h0.883
		v3.208c0,0.084,0.027,0.182,0.111,0.224c0.07,0.042,0.168,0.056,0.295,0.056H286.182z"/>
	<path fill="#4D4D4D" d="M327.941,0.985c-0.406,0.98-0.926,1.919-1.5,2.83v9.469h-1.051V5.313c-0.602,0.785-1.232,1.471-1.877,2.059
		c-0.111-0.252-0.42-0.77-0.602-1.008c1.598-1.359,3.139-3.488,4.049-5.687L327.941,0.985z M331.639,5.72
		c0.477,3.712,1.387,6.22,2.887,6.359c0.406,0.028,0.629-0.798,0.77-2.409c0.211,0.196,0.658,0.448,0.869,0.546
		c-0.309,2.395-0.869,3.124-1.598,3.082c-2.297-0.168-3.418-3.067-3.949-7.438l-3.363,0.42l-0.139-0.98l3.389-0.42
		c-0.111-1.303-0.209-2.689-0.266-4.146h1.037c0.041,1.415,0.125,2.773,0.266,4.006l4.188-0.532l0.141,0.98L331.639,5.72z
		 M334.791,3.619c-0.449-0.63-1.43-1.611-2.256-2.297l0.756-0.504c0.842,0.658,1.836,1.611,2.313,2.241L334.791,3.619z"/>
	<path fill="#4D4D4D" d="M349.225,7.989c-0.799,0.686-1.82,1.4-2.703,1.947c0.967,0.911,2.129,1.597,3.516,2.003
		c-0.225,0.21-0.531,0.616-0.686,0.896c-2.873-0.967-4.834-3.068-5.898-5.996c-0.602,0.659-1.357,1.289-2.184,1.849v3.096
		l3.389-1.022c0.027,0.28,0.111,0.687,0.168,0.896c-3.879,1.246-4.385,1.415-4.707,1.639c-0.068-0.266-0.279-0.714-0.447-0.952
		c0.225-0.112,0.531-0.364,0.531-0.911V9.362c-0.797,0.462-1.639,0.84-2.408,1.135c-0.141-0.252-0.449-0.63-0.672-0.84
		c1.736-0.546,3.711-1.639,5.027-2.816h-4.621V5.944h5.49V4.697h-4.23V3.829h4.23V2.652h-4.945V1.756h4.945V0.509h1.037v1.247h5.098
		v0.896h-5.098v1.177h4.469v0.868h-4.469v1.247h5.533V6.84h-5.127c0.377,0.925,0.867,1.751,1.484,2.479
		c0.84-0.574,1.82-1.345,2.424-1.933L349.225,7.989z"/>
	<path fill="#4D4D4D" d="M358.127,0.565c-0.016,0.504-0.029,1.205-0.1,2.031c0.211,1.667,1.051,7.522,5.996,9.721
		c-0.295,0.238-0.602,0.588-0.756,0.883c-3.502-1.639-5.002-5.099-5.674-7.705c-0.645,2.802-2.129,5.939-5.547,7.76
		c-0.182-0.28-0.518-0.588-0.84-0.813c5.813-2.941,5.729-9.749,5.77-11.878H358.127z"/>
	<path fill="#4D4D4D" d="M370.502,3.563c0-0.644,0.504-1.05,1.064-1.05s1.064,0.406,1.064,1.05c0,0.645-0.504,1.051-1.064,1.051
		S370.502,4.207,370.502,3.563z M370.502,10.426c0-0.644,0.504-1.064,1.064-1.064s1.064,0.42,1.064,1.064
		c0,0.63-0.504,1.051-1.064,1.051S370.502,11.057,370.502,10.426z"/>
	<path fill="#4D4D4D" d="M391.154,3.002v6.556h-1.064V8.76h-4.02v4.538h-1.078V8.76h-4.008v0.868h-1.021V3.002h5.029V0.509h1.078
		v2.493H391.154z M384.992,7.737V4.025h-4.008v3.712H384.992z M390.09,7.737V4.025h-4.02v3.712H390.09z"/>
	<path fill="#4D4D4D" d="M397.129,11.253c0.924-0.126,1.891-0.252,2.844-0.392L400,11.785c-2.41,0.364-4.959,0.729-6.709,0.994
		l-0.127-1.022c0.813-0.084,1.836-0.224,2.955-0.378V9.348h-2.521V8.396h2.521V6.813h-2.492V1.209h6.01v5.603h-2.508v1.583h2.508
		v0.952h-2.508V11.253z M394.51,3.604h1.666V2.078h-1.666V3.604z M394.51,5.944h1.666V4.417h-1.666V5.944z M398.725,2.078h-1.652
		v1.526h1.652V2.078z M398.725,4.417h-1.652v1.527h1.652V4.417z M406.08,5.86c-0.352,1.163-0.771,2.479-1.178,3.306l-0.854-0.238
		c0.252-0.561,0.561-1.401,0.797-2.228h-1.652v5.337c0,0.589-0.125,0.896-0.561,1.079c-0.42,0.168-1.135,0.182-2.17,0.182
		c-0.043-0.308-0.197-0.729-0.352-1.036c0.828,0.027,1.555,0.027,1.779,0.014c0.225,0,0.281-0.07,0.281-0.266V6.7h-2.256V5.72h3.643
		c-0.758-0.7-1.893-1.513-2.928-2.045l0.658-0.63c0.463,0.224,0.938,0.504,1.4,0.827c0.547-0.49,1.107-1.107,1.541-1.695h-4.133
		V1.237h4.861l0.225-0.056l0.672,0.476c-0.617,0.938-1.541,1.961-2.438,2.717c0.49,0.351,0.924,0.729,1.232,1.037l-0.295,0.308
		h0.855l0.168-0.042L406.08,5.86z"/>
	<path fill="#4D4D4D" d="M415.566,11.785c-1.148,0.63-2.912,1.219-4.314,1.555c-0.168-0.196-0.518-0.588-0.756-0.771
		c1.443-0.266,3.123-0.714,4.133-1.205L415.566,11.785z M422.906,5.3H410.51V4.487h5.674V3.745h-3.797V1.321h3.797V0.509h1.021
		v0.812h3.992v2.423h-3.992v0.743h5.701V5.3z M412.275,11.225V5.986h9.049v5.239H412.275z M413.283,7.527h7.004V6.658h-7.004V7.527z
		 M413.283,9.026h7.004V8.171h-7.004V9.026z M413.283,10.553h7.004V9.684h-7.004V10.553z M416.184,3.03V2.022h-2.816V3.03H416.184z
		 M417.205,2.022V3.03h2.984V2.022H417.205z M418.705,11.393c1.527,0.406,3.193,0.98,4.217,1.386l-1.191,0.519
		c-0.869-0.393-2.367-0.925-3.908-1.387L418.705,11.393z"/>
	<path fill="#4D4D4D" d="M436.094,11.757c0,0.714-0.154,1.079-0.629,1.26c-0.49,0.183-1.359,0.196-2.605,0.196
		c-0.043-0.309-0.197-0.826-0.365-1.121c0.967,0.028,1.934,0.028,2.213,0.014c0.268-0.014,0.336-0.084,0.336-0.35V2.414h-10.07
		V1.419h11.121V11.757z M433.447,4.81h-8.377V3.871h8.377V4.81z M426.975,10.763v1.022h-1.021V6.308h6.541v4.455H426.975z
		 M426.975,7.233v2.605h4.498V7.233H426.975z"/>
	<path fill="#4D4D4D" d="M9.258,34.773c0.504-0.224,1.023-0.435,1.541-0.658l0.21,0.925c-1.471,0.686-3.04,1.387-4.258,1.933
		l-0.406-1.036c0.533-0.183,1.205-0.463,1.933-0.771v-4.314H6.597v-0.995h1.681v-3.18h0.98v3.18h1.513v0.995H9.258V34.773z
		 M17.298,38.052c0.813,0,0.953-0.379,1.051-1.989c0.252,0.182,0.644,0.35,0.938,0.392c-0.168,1.919-0.49,2.536-1.947,2.536h-3.446
		c-1.583,0-2.059-0.379-2.059-1.892V32.7l-1.106,0.463l-0.406-0.911l1.513-0.63v-3.811h0.995v3.376l1.877-0.784v-3.895h0.995v3.475
		l2.129-0.896l0.798,0.266l-0.056,0.168c-0.14,1.976-0.378,4.553-0.729,6.136l-0.854-0.252c0.238-1.275,0.42-3.349,0.532-5.113
		l-1.821,0.771v5.141h-0.995v-4.721L12.83,32.28v4.832c0,0.757,0.182,0.939,1.092,0.939H17.298z"/>
	<path fill="#4D4D4D" d="M25.345,35.012c-1.597,0.687-3.306,1.415-4.608,1.947l-0.378-1.009c0.561-0.21,1.275-0.477,2.045-0.771
		v-4.328h-1.905v-0.995h1.905v-3.165h0.98v3.165h1.821v0.995h-1.821v3.95l1.765-0.7L25.345,35.012z M33.246,37.813v0.994H24.21
		v-0.994h1.709v-8.251h1.022v8.251h2.059V26.607h1.037v4.734h3.012v0.994h-3.012v5.478H33.246z"/>
	<path fill="#4D4D4D" d="M39.765,29.563c0-0.645,0.504-1.051,1.065-1.051c0.56,0,1.064,0.406,1.064,1.051s-0.504,1.051-1.064,1.051
		C40.27,30.613,39.765,30.207,39.765,29.563z M39.765,36.427c0-0.645,0.504-1.064,1.065-1.064c0.56,0,1.064,0.42,1.064,1.064
		c0,0.63-0.504,1.05-1.064,1.05C40.27,37.477,39.765,37.057,39.765,36.427z"/>
	<path fill="#4D4D4D" d="M57.029,28.105c1.358,1.191,2.969,2.9,3.698,4.063l-0.882,0.631c-0.21-0.364-0.504-0.771-0.854-1.205
		c-7.999,0.448-8.811,0.477-9.357,0.673c-0.042-0.225-0.224-0.743-0.336-1.023c0.308-0.056,0.672-0.363,1.135-0.826
		c0.504-0.448,2.129-2.213,3.222-3.95l1.022,0.463c-1.106,1.513-2.353,2.955-3.586,4.118l7.144-0.351
		c-0.645-0.729-1.359-1.457-2.031-2.059L57.029,28.105z M50.375,33.442h8.909v5.827h-1.092v-0.728h-6.766v0.756h-1.051V33.442z
		 M51.426,34.438v3.096h6.766v-3.096H51.426z"/>
	<path fill="#4D4D4D" d="M68.438,35.853l0.182,0.896c-2.003,0.868-4.174,1.778-5.785,2.409l-0.476-1.022
		c1.009-0.351,2.451-0.883,3.964-1.471v-5.59h-3.544v-1.022h3.544v-3.277h1.064v9.483L68.438,35.853z M73.102,37.729
		c0.63,0,0.715-0.673,0.799-3.349c0.28,0.225,0.7,0.435,0.994,0.505c-0.112,2.871-0.364,3.866-1.708,3.866h-1.877
		c-1.205,0-1.555-0.406-1.555-1.863v-10.1h1.051v3.25h3.908v1.022h-3.908v5.841c0,0.701,0.098,0.827,0.63,0.827H73.102z"/>
	<path fill="#4D4D4D" d="M83.306,29.577v1.891h4.539v4.902c0,0.603-0.14,0.911-0.588,1.093c-0.476,0.168-1.261,0.183-2.451,0.183
		c-0.042-0.322-0.224-0.743-0.364-1.037c0.953,0.028,1.793,0.028,2.031,0.028c0.252-0.028,0.322-0.084,0.322-0.28V32.49h-3.488
		v6.794h-1.05V32.49h-3.278v5.197h-1.037v-6.22h4.314v-1.891h-5.673v-1.023h5.967c-0.224-0.546-0.603-1.274-0.924-1.835l0.994-0.308
		c0.42,0.645,0.896,1.526,1.093,2.073l-0.182,0.069h5.561v1.023H83.306z"/>
	<path fill="#4D4D4D" d="M97.698,31.58c0.981,3.081,2.802,5.617,5.505,6.724c-0.252,0.238-0.603,0.672-0.785,0.98
		c-2.689-1.275-4.468-3.754-5.575-6.934c-0.672,2.689-2.185,5.379-5.589,6.934c-0.154-0.28-0.49-0.645-0.784-0.854
		c3.474-1.513,4.875-4.202,5.449-6.85H90.75v-1.064h5.337c0.21-1.472,0.196-2.872,0.21-3.979h1.121
		c-0.014,1.12-0.028,2.507-0.224,3.979h5.785v1.064H97.698z"/>
	<path fill="#4D4D4D" d="M114.038,33.121c-0.392,1.246-0.924,2.269-1.639,3.081c1.681,0.715,3.236,1.499,4.3,2.186l-0.785,0.91
		c-1.037-0.7-2.605-1.526-4.342-2.283c-1.415,1.19-3.375,1.877-5.995,2.325c-0.098-0.28-0.434-0.771-0.658-1.036
		c2.409-0.309,4.216-0.841,5.519-1.779c-1.303-0.546-2.662-1.036-3.88-1.429c0.406-0.546,0.854-1.232,1.303-1.975h-3.04v-0.995
		h3.586c0.462-0.84,0.868-1.681,1.163-2.438l1.163,0.21c-0.28,0.715-0.645,1.472-1.051,2.228h3.404
		c0.098-0.435,0.182-0.896,0.252-1.387l1.219,0.112c-0.07,0.448-0.154,0.882-0.252,1.274h2.563v0.995H114.038z M106.208,30.936
		h-1.037v-2.802h5.211c-0.196-0.448-0.448-0.994-0.687-1.429l1.106-0.28c0.294,0.532,0.659,1.219,0.869,1.709h4.818v2.802h-1.078
		v-1.835h-9.203V30.936z M109.135,33.121c-0.322,0.546-0.63,1.05-0.938,1.498c1.008,0.322,2.073,0.729,3.124,1.135
		c0.658-0.7,1.148-1.568,1.513-2.633H109.135z"/>
	<path fill="#4D4D4D" d="M128.626,37.688c0.756,0,1.821-0.057,2.325-0.154c0.042,0.294,0.112,0.771,0.168,0.994
		c-0.364,0.112-1.429,0.126-2.507,0.126h-6.163c-2.143,0-3.18-0.672-3.18-2.717v-7.845h-0.574v-0.938h11.738v0.938h-10.142v7.914
		c0,1.191,0.546,1.682,2.045,1.682H128.626z M121.398,33.051h3.642v3.586h-3.642V33.051z M122.267,35.88h1.863v-2.073h-1.863V35.88z
		 M128.108,32.098h-5.197v-3.096h5.197V32.098z M127.085,29.745h-3.193v1.597h3.193V29.745z M129.747,36.637h-3.768v-3.586h3.768
		V36.637z M128.822,33.807h-1.947v2.073h1.947V33.807z"/>
	<path fill="#4D4D4D" d="M134.67,35.376c-0.336,0.994-0.925,2.087-1.443,2.787c-0.168-0.126-0.519-0.392-0.729-0.504
		c0.546-0.658,1.037-1.611,1.317-2.521L134.67,35.376z M136.393,34.396v4.86h-1.022v-4.86h-2.788v-0.896h2.788v-1.471h-2.857v-0.883
		h3.866c0.267-0.645,0.588-1.568,0.757-2.213l0.952,0.196c-0.252,0.672-0.518,1.429-0.784,2.017h1.779v0.883h-2.689v1.471h2.536
		v0.896H136.393z M138.872,28.849h-6.135v-0.869h2.745c-0.182-0.42-0.42-0.896-0.616-1.274l1.009-0.266
		c0.294,0.476,0.602,1.078,0.784,1.54h2.213V28.849z M134.179,31.09c-0.07-0.519-0.294-1.331-0.532-1.947l0.827-0.196
		c0.28,0.603,0.518,1.387,0.574,1.905L134.179,31.09z M137.737,35.054c0.448,0.687,0.938,1.597,1.177,2.199l-0.743,0.42
		c-0.224-0.603-0.728-1.568-1.148-2.241L137.737,35.054z M145.204,32.183h-1.541v7.06h-1.009v-7.06h-1.919v0.49
		c0,2.003-0.182,4.748-1.457,6.569c-0.168-0.196-0.574-0.519-0.798-0.631c1.176-1.681,1.289-4.076,1.289-5.938v-4.819
		c1.569-0.252,3.362-0.672,4.356-1.093l0.84,0.771c-1.148,0.435-2.76,0.785-4.23,1.009v2.661h4.469V32.183z"/>
	<path fill="#4D4D4D" d="M159.063,37.855v1.008h-12.411v-1.008h5.673v-3.559h-4.16v-1.008h4.16v-3.054h-3.292
		c-0.448,0.882-0.938,1.652-1.471,2.283c-0.196-0.168-0.658-0.477-0.938-0.616c1.149-1.233,2.045-3.166,2.591-5.155l1.051,0.225
		c-0.224,0.771-0.476,1.526-0.785,2.241h2.844v-2.689h1.064v2.689h5.015v1.022h-5.015v3.054h4.497v1.008h-4.497v3.559H159.063z"/>
	<path fill="#4D4D4D" d="M167.25,28.891c-0.07,0.518-0.154,1.036-0.224,1.484h5.197v7.719c0,0.616-0.154,0.896-0.602,1.05
		c-0.448,0.168-1.247,0.168-2.367,0.168c-0.07-0.279-0.238-0.672-0.378-0.938c0.882,0.042,1.737,0.042,1.975,0.028
		c0.252-0.014,0.322-0.084,0.322-0.308v-6.752h-8.671v7.956h-1.022v-8.923h4.553c0.07-0.435,0.126-0.952,0.182-1.484h-5.491v-0.98
		h5.589c0.042-0.505,0.084-0.995,0.098-1.415l1.121,0.126c-0.042,0.406-0.098,0.854-0.154,1.289h5.589v0.98H167.25z M167.292,36.566
		v2.466h-0.994v-2.466h-3.012v-0.868h3.012v-1.415h-2.718v-0.854h1.471c-0.126-0.462-0.448-1.162-0.77-1.652l0.826-0.211
		c0.336,0.49,0.687,1.177,0.813,1.625l-0.756,0.238h2.507c0.294-0.588,0.616-1.373,0.798-1.919l0.938,0.21
		c-0.266,0.589-0.546,1.19-0.813,1.709h1.583v0.854h-2.886v1.415h3.124v0.868H167.292z"/>
	<path fill="#4D4D4D" d="M186.251,28.19c-0.448,1.456-1.177,2.689-2.045,3.726c0.869,0.841,1.933,1.583,3.194,2.06
		c-0.21,0.195-0.504,0.602-0.644,0.854c-0.14-0.069-0.294-0.126-0.448-0.195v4.608h-0.995v-0.463h-3.502v0.505h-0.967v-4.665
		c-0.28,0.141-0.56,0.267-0.84,0.393c-0.098-0.21-0.308-0.49-0.504-0.7h-1.471v2.507c0.603-0.14,1.219-0.28,1.835-0.434l0.098,0.938
		c-1.905,0.462-3.894,0.938-5.365,1.303l-0.196-1.009l0.714-0.154v-4.776h0.883v4.595l1.078-0.253V31.37h-1.961v-4.272h4.524v3.712
		c1.107-1.051,2.017-2.619,2.536-4.301l0.995,0.238c-0.14,0.406-0.294,0.813-0.448,1.19h2.703l0.182-0.042L186.251,28.19z
		 M176.04,30.459h2.633v-2.451h-2.633V30.459z M179.765,34.06c1.121-0.477,2.228-1.219,3.166-2.186
		c-0.519-0.631-0.938-1.289-1.289-1.919c-0.393,0.616-0.827,1.148-1.275,1.61c-0.154-0.153-0.476-0.448-0.729-0.616v0.421h-1.611
		v2.017h1.737V34.06z M185.648,34.255c-0.784-0.462-1.471-1.05-2.073-1.652c-0.645,0.645-1.359,1.204-2.102,1.652H185.648z
		 M185.313,37.855v-2.689h-3.502v2.689H185.313z M182.287,28.849l-0.14,0.266c0.351,0.687,0.813,1.415,1.387,2.102
		c0.588-0.715,1.079-1.499,1.429-2.367H182.287z"/>
	<path fill="#4D4D4D" d="M201.217,32.21v1.135h-12.719V32.21H201.217z"/>
	<path fill="#4D4D4D" d="M207.934,36.118c-1.163,0.183-2.325,0.393-3.404,0.561v2.423h-1.009v-2.269l-1.008,0.168l-0.154-0.98
		c0.336-0.042,0.743-0.099,1.163-0.154v-8.11l0.028,0.014v-0.014c1.303-0.336,2.801-0.868,3.67-1.316l0.84,0.784
		c-0.995,0.434-2.311,0.854-3.53,1.162v1.527h3.138v0.924h-3.138v1.92h3.124v0.924h-3.124v2.031c1.037-0.154,2.213-0.322,3.362-0.49
		L207.934,36.118z M214.209,33.036c-0.406,1.667-1.121,2.942-2.059,3.908c0.868,0.659,1.905,1.163,3.082,1.443
		c-0.224,0.21-0.504,0.603-0.645,0.896c-1.205-0.364-2.269-0.925-3.166-1.681c-1.009,0.826-2.213,1.372-3.53,1.765
		c-0.098-0.28-0.336-0.687-0.532-0.896c1.247-0.294,2.395-0.813,3.333-1.541c-0.798-0.854-1.415-1.877-1.849-3.054l0.519-0.14h-0.98
		v-0.896h5l0.182-0.042L214.209,33.036z M210.329,28.736c0,1.247-0.322,2.802-1.835,3.81c-0.14-0.182-0.518-0.518-0.714-0.658
		c1.359-0.924,1.583-2.157,1.583-3.18v-1.681h3.88v3.544c0,0.364,0.042,0.477,0.238,0.477h0.938c0.182,0,0.49-0.015,0.645-0.057
		c0.028,0.238,0.042,0.589,0.084,0.813c-0.168,0.057-0.434,0.057-0.714,0.057h-1.051c-0.924,0-1.106-0.364-1.106-1.317v-2.605
		h-1.947V28.736z M209.712,33.737c0.392,0.98,0.953,1.835,1.695,2.563c0.672-0.687,1.219-1.541,1.569-2.563H209.712z"/>
	<path fill="#4D4D4D" d="M217.339,36.566c0.435,0.49,1.065,0.784,1.724,0.784c1.33,0,2.479-1.092,2.576-4.286
		c-0.615,0.771-1.498,1.274-2.367,1.274c-1.708,0-2.829-1.106-2.829-3.235c0-1.989,1.345-3.334,2.942-3.334
		c1.975,0,3.445,1.625,3.445,4.889c0,4.16-1.793,5.757-3.727,5.757c-1.106,0-1.891-0.448-2.465-1.05L217.339,36.566z
		 M221.625,32.014c-0.141-2.115-0.924-3.235-2.24-3.235c-0.981,0-1.738,0.925-1.738,2.325c0,1.387,0.616,2.283,1.835,2.283
		C220.168,33.387,220.939,32.994,221.625,32.014z"/>
	<path fill="#4D4D4D" d="M224.002,37.015l0.645-0.841c0.604,0.631,1.387,1.177,2.549,1.177c1.219,0,2.088-0.729,2.088-1.904
		c0-1.233-0.826-2.06-3.193-2.06v-0.98c2.115,0,2.844-0.854,2.844-1.961c0-0.995-0.674-1.625-1.738-1.653
		c-0.826,0.028-1.555,0.448-2.129,1.022l-0.686-0.813c0.77-0.714,1.682-1.232,2.871-1.232c1.723,0,2.984,0.925,2.984,2.577
		c0,1.247-0.742,2.073-1.836,2.479v0.057c1.219,0.28,2.186,1.204,2.186,2.605c0,1.835-1.471,2.927-3.291,2.927
		C225.684,38.415,224.674,37.743,224.002,37.015z"/>
	<path fill="#4D4D4D" d="M236.451,34.228c0,0-0.016,0.28-0.029,0.42c-0.195,2.689-0.393,3.754-0.756,4.132
		c-0.211,0.253-0.447,0.337-0.813,0.364c-0.279,0.028-0.826,0.028-1.373-0.014c-0.014-0.267-0.111-0.63-0.252-0.868
		c0.533,0.042,1.051,0.056,1.246,0.056c0.211,0,0.338-0.028,0.449-0.14c0.225-0.225,0.393-1.065,0.561-3.11h-1.891v0.015h-0.939
		c0.195-0.616,0.379-1.485,0.533-2.27h-1.205v-0.925h5.029v0.925h-2.928c-0.084,0.462-0.197,0.967-0.281,1.415H236.451z
		 M236.674,30.795h-4.033v-3.67h4.033V30.795z M235.848,27.896h-2.408v2.102h2.408V27.896z M238.537,32.826
		c0,1.919-0.195,4.65-1.414,6.5c-0.168-0.168-0.547-0.463-0.785-0.574c1.148-1.724,1.275-4.133,1.275-5.939v-3.544h2.746v-2.76h0.98
		v0.98h2.814v0.854h-2.814v0.925h2.717l0.154-0.042l0.631,0.168c-0.168,0.826-0.406,1.793-0.59,2.424l-0.77-0.196
		c0.111-0.393,0.225-0.938,0.295-1.485h-5.24V32.826z M240.541,34.577c-0.113,2.228-0.449,3.796-1.961,4.721
		c-0.127-0.224-0.393-0.532-0.604-0.687c1.318-0.771,1.584-2.115,1.668-4.034H240.541z M243.02,33.064
		c0.252,0,0.674-0.028,0.855-0.07c0.027,0.253,0.055,0.532,0.084,0.771c-0.197,0.07-0.547,0.07-0.896,0.07h-1.682
		c-0.896,0-1.092-0.378-1.092-1.274v-0.435l-1.373,0.141l-0.098-0.743l1.471-0.153v-1.163h0.896v1.064l1.807-0.182l0.098,0.742
		l-1.904,0.196v0.532c0,0.378,0.055,0.504,0.35,0.504H243.02z M243.482,38.065c0.154,0,0.295-0.014,0.363-0.057
		c0.084-0.056,0.168-0.153,0.197-0.294c0.027-0.224,0.055-0.756,0.041-1.4c0.184,0.168,0.506,0.351,0.771,0.42
		c-0.014,0.658-0.07,1.359-0.141,1.597c-0.084,0.253-0.225,0.421-0.42,0.532c-0.182,0.085-0.49,0.141-0.729,0.141h-0.756
		c-0.309,0-0.631-0.056-0.826-0.225c-0.225-0.182-0.268-0.378-0.268-1.022v-3.18h0.883v3.208c0,0.084,0.027,0.182,0.111,0.224
		c0.07,0.043,0.17,0.057,0.295,0.057H243.482z"/>
	<path fill="#4D4D4D" d="M251.641,29.619c-0.406-0.49-1.021-0.785-1.652-0.785c-1.4,0-2.592,1.079-2.648,4.272
		c0.631-0.771,1.527-1.246,2.34-1.246c1.738,0,2.844,1.078,2.844,3.222c0,1.988-1.344,3.333-2.941,3.333
		c-1.975,0-3.432-1.694-3.432-5.084c0-4.021,1.807-5.562,3.795-5.562c1.066,0,1.836,0.448,2.396,1.051L251.641,29.619z
		 M251.318,35.082c0-1.387-0.602-2.27-1.848-2.27c-0.645,0-1.43,0.364-2.102,1.316c0.154,2.13,0.924,3.292,2.213,3.292
		C250.563,37.421,251.318,36.482,251.318,35.082z"/>
	<path fill="#4D4D4D" d="M257.338,34.144c-0.182-0.463-0.629-1.275-1.008-1.961v7.115h-0.967v-6.752
		c-0.35,1.443-0.826,2.928-1.289,3.881c-0.111-0.309-0.363-0.771-0.518-1.022c0.658-1.205,1.359-3.475,1.666-5.226h-1.471v-0.98
		h1.611v-2.689h0.967v2.689h1.4v0.98h-1.4v0.729c0.363,0.49,1.387,2.115,1.639,2.493L257.338,34.144z M264.805,35.88
		c-0.281,0.658-0.672,1.205-1.232,1.695c1.051,0.336,2.031,0.7,2.76,1.036l-0.771,0.658c-0.699-0.35-1.723-0.756-2.857-1.12
		c-1.021,0.546-2.438,0.938-4.439,1.19c-0.07-0.224-0.238-0.588-0.393-0.771c1.582-0.182,2.773-0.434,3.67-0.798
		c-0.91-0.267-1.836-0.519-2.689-0.715c0.322-0.336,0.686-0.742,1.037-1.177h-1.863v-0.826h2.508c0.252-0.351,0.49-0.7,0.686-1.036
		h-2.676v-2.27h3.166v-0.7h-2.871v-1.443h-0.813v-0.813h0.813v-1.387h2.871v-0.896h0.98v0.896h2.871v1.387h0.869v0.813h-0.869v1.443
		h-2.871v0.7h3.223v2.27h-3.602c-0.195,0.336-0.434,0.686-0.686,1.036h2.508c0.055-0.196,0.111-0.406,0.154-0.603h0.938
		c-0.041,0.196-0.098,0.406-0.125,0.603h1.441v0.826H264.805z M259.482,33.316h2.227v-0.854h-2.227V33.316z M259.748,28.105v0.771
		h1.961v-0.771H259.748z M261.709,30.347v-0.84h-1.961v0.84H261.709z M261.008,35.88c-0.238,0.28-0.447,0.547-0.658,0.785
		c0.715,0.168,1.471,0.363,2.229,0.588c0.559-0.378,0.951-0.841,1.232-1.373H261.008z M262.689,28.105v0.771h1.934v-0.771H262.689z
		 M264.623,30.347v-0.84h-1.934v0.84H264.623z M262.689,32.462v0.854h2.24v-0.854H262.689z"/>
	<path fill="#4D4D4D" d="M279.268,29.745c-1.725,2.563-4.834,5.463-7.691,7.228c0.113,0.084,0.225,0.168,0.365,0.252
		c0.883,0.561,2.016,0.658,3.586,0.658c1.625,0,3.697-0.111,5.043-0.252c-0.127,0.267-0.295,0.813-0.309,1.121
		c-1.037,0.069-3.432,0.153-4.777,0.153c-1.68,0-2.83-0.168-3.754-0.756c-0.574-0.364-1.008-0.813-1.316-0.813
		c-0.449,0-1.107,0.813-1.766,1.737l-0.77-0.953c0.924-1.009,1.834-1.765,2.549-1.765c0.07,0,0.127,0.014,0.182,0.028
		c2.551-1.471,5.324-3.979,6.879-6.094h-8.895v-1.009h9.664l0.225-0.069L279.268,29.745z M274.434,29.269
		c-0.279-0.603-0.924-1.611-1.457-2.354l0.896-0.462c0.561,0.714,1.234,1.681,1.514,2.27L274.434,29.269z"/>
	<path fill="#4D4D4D" d="M294.527,32.21v1.135h-12.719V32.21H294.527z"/>
	<path fill="#4D4D4D" d="M302.697,33.877c0-2.745,0.77-5.015,2.059-7.102l0.799,0.364c-1.219,2.003-1.793,4.356-1.793,6.737
		c0,2.382,0.574,4.749,1.793,6.737l-0.799,0.379C303.467,38.892,302.697,36.637,302.697,33.877z"/>
	<path fill="#4D4D4D" d="M306.77,37.967c0.701-0.882,1.318-2.283,1.668-3.361l0.896,0.351c-0.379,1.078-0.939,2.535-1.611,3.474
		L306.77,37.967z M312.611,32.603h-4.58V28.19h4.58v-1.667h1.023v1.667h4.664v4.412h-4.664v1.415h-0.742
		c0.756,0.546,1.639,1.288,2.1,1.778l-0.826,0.658c-0.477-0.56-1.471-1.429-2.283-2.017l0.729-0.519V32.603z M312.611,31.664v-2.535
		h-3.572v2.535H312.611z M314.938,38.037c0.699,0,0.813-0.238,0.883-1.807c0.252,0.182,0.686,0.336,0.994,0.42
		c-0.141,1.892-0.477,2.382-1.793,2.382h-2.873c-1.525,0-1.918-0.322-1.918-1.471V34.55h1.064v2.997c0,0.406,0.141,0.49,0.939,0.49
		H314.938z M313.635,29.129v2.535h3.641v-2.535H313.635z M317.318,34.535c0.729,0.967,1.682,2.325,2.102,3.166l-0.939,0.519
		c-0.406-0.854-1.303-2.228-2.072-3.236L317.318,34.535z"/>
	<path fill="#4D4D4D" d="M328.404,31.342c-0.615,0.435-1.26,0.854-1.904,1.246h4.117l0.225-0.056l0.672,0.561
		c-0.951,0.714-2.24,1.429-3.459,1.919v0.294h5.197v0.925h-5.197v1.891c0,0.574-0.141,0.827-0.604,0.98
		c-0.461,0.154-1.203,0.168-2.367,0.168c-0.055-0.294-0.236-0.672-0.391-0.938c0.924,0.028,1.793,0.028,2.045,0.015
		c0.223-0.015,0.293-0.057,0.293-0.252V36.23h-5.057v-0.925h5.057v-0.7c0.813-0.28,1.709-0.715,2.424-1.163h-4.469
		c-1.189,0.631-2.408,1.177-3.641,1.64c-0.127-0.21-0.477-0.645-0.688-0.827c2.115-0.729,4.189-1.723,6.066-2.913h-5.814v-0.925
		h4.805V28.96h-3.613v-0.91h3.613v-1.541h1.023v1.541h3.137v0.91c0.658-0.602,1.289-1.26,1.822-1.919l0.867,0.505
		c-0.854,1.036-1.863,2.003-2.941,2.871h3.768v0.925H328.404z M328.068,30.417c0.645-0.462,1.246-0.952,1.807-1.457h-3.137v1.457
		H328.068z"/>
	<path fill="#4D4D4D" d="M336.984,35.376c-0.336,0.994-0.926,2.087-1.443,2.787c-0.168-0.126-0.518-0.392-0.729-0.504
		c0.547-0.658,1.037-1.611,1.316-2.521L336.984,35.376z M338.707,34.396v4.86h-1.023v-4.86h-2.787v-0.896h2.787v-1.471h-2.857
		v-0.883h3.867c0.266-0.645,0.588-1.568,0.756-2.213l0.953,0.196c-0.254,0.672-0.52,1.429-0.785,2.017h1.779v0.883h-2.689v1.471
		h2.535v0.896H338.707z M341.186,28.849h-6.135v-0.869h2.746c-0.184-0.42-0.422-0.896-0.617-1.274l1.008-0.266
		c0.295,0.476,0.604,1.078,0.785,1.54h2.213V28.849z M336.494,31.09c-0.07-0.519-0.295-1.331-0.533-1.947l0.826-0.196
		c0.281,0.603,0.52,1.387,0.574,1.905L336.494,31.09z M340.051,35.054c0.449,0.687,0.939,1.597,1.178,2.199l-0.742,0.42
		c-0.225-0.603-0.729-1.568-1.148-2.241L340.051,35.054z M347.518,32.183h-1.541v7.06h-1.008v-7.06h-1.92v0.49
		c0,2.003-0.182,4.748-1.457,6.569c-0.168-0.196-0.574-0.519-0.799-0.631c1.178-1.681,1.289-4.076,1.289-5.938v-4.819
		c1.568-0.252,3.361-0.672,4.357-1.093l0.84,0.771c-1.148,0.435-2.76,0.785-4.23,1.009v2.661h4.469V32.183z"/>
	<path fill="#4D4D4D" d="M361.377,37.855v1.008h-12.41v-1.008h5.674v-3.559h-4.162v-1.008h4.162v-3.054h-3.293
		c-0.447,0.882-0.938,1.652-1.471,2.283c-0.195-0.168-0.658-0.477-0.938-0.616c1.148-1.233,2.045-3.166,2.59-5.155l1.051,0.225
		c-0.225,0.771-0.477,1.526-0.783,2.241h2.844v-2.689h1.064v2.689h5.014v1.022h-5.014v3.054h4.496v1.008h-4.496v3.559H361.377z"/>
	<path fill="#4D4D4D" d="M368.248,35.628l0.098,0.952c-1.85,0.477-3.797,0.967-5.254,1.331l-0.252-1.022
		c0.813-0.182,1.877-0.406,3.025-0.687c0.365-1.484,0.729-3.936,0.912-5.631l0.98,0.182c-0.281,1.64-0.658,3.769-1.023,5.239
		L368.248,35.628z M363.008,29.129h5.408v0.966h-5.408V29.129z M364.395,30.739c0.322,1.597,0.631,3.614,0.715,4.986l-0.883,0.169
		c-0.055-1.373-0.35-3.418-0.672-5.001L364.395,30.739z M365.572,28.988c-0.168-0.574-0.561-1.471-0.924-2.129l0.867-0.267
		c0.42,0.645,0.826,1.499,0.994,2.073L365.572,28.988z M372.002,30.403v2.76h2.941v6.079h-1.051V38.64h-4.203v0.658h-1.008v-6.135
		h2.27v-6.654h1.051v2.899h3.529v0.995H372.002z M373.893,34.144h-4.203v3.516h4.203V34.144z"/>
	<path fill="#4D4D4D" d="M381.799,29.059h-4.973v-1.093h6.43v0.771c-2.408,3.096-2.857,5.477-3.012,9.497h-1.33
		C379.082,34.339,379.797,31.86,381.799,29.059z"/>
	<path fill="#4D4D4D" d="M388.994,34.228c0,0-0.014,0.28-0.027,0.42c-0.197,2.689-0.393,3.754-0.756,4.132
		c-0.211,0.253-0.449,0.337-0.813,0.364c-0.281,0.028-0.828,0.028-1.373-0.014c-0.014-0.267-0.113-0.63-0.252-0.868
		c0.531,0.042,1.051,0.056,1.246,0.056c0.209,0,0.336-0.028,0.447-0.14c0.225-0.225,0.393-1.065,0.561-3.11h-1.891v0.015h-0.938
		c0.195-0.616,0.377-1.485,0.531-2.27h-1.205v-0.925h5.029v0.925h-2.928c-0.084,0.462-0.195,0.967-0.279,1.415H388.994z
		 M389.219,30.795h-4.035v-3.67h4.035V30.795z M388.393,27.896h-2.41v2.102h2.41V27.896z M391.082,32.826
		c0,1.919-0.197,4.65-1.416,6.5c-0.168-0.168-0.545-0.463-0.783-0.574c1.148-1.724,1.273-4.133,1.273-5.939v-3.544h2.746v-2.76h0.98
		v0.98h2.816v0.854h-2.816v0.925h2.717l0.154-0.042l0.631,0.168c-0.168,0.826-0.406,1.793-0.588,2.424l-0.771-0.196
		c0.113-0.393,0.225-0.938,0.295-1.485h-5.238V32.826z M393.084,34.577c-0.111,2.228-0.447,3.796-1.961,4.721
		c-0.125-0.224-0.393-0.532-0.602-0.687c1.316-0.771,1.582-2.115,1.666-4.034H393.084z M395.564,33.064
		c0.252,0,0.672-0.028,0.854-0.07c0.029,0.253,0.057,0.532,0.084,0.771c-0.195,0.07-0.545,0.07-0.896,0.07h-1.68
		c-0.896,0-1.094-0.378-1.094-1.274v-0.435l-1.373,0.141l-0.098-0.743l1.471-0.153v-1.163h0.896v1.064l1.807-0.182l0.1,0.742
		l-1.906,0.196v0.532c0,0.378,0.057,0.504,0.352,0.504H395.564z M396.025,38.065c0.154,0,0.295-0.014,0.365-0.057
		c0.084-0.056,0.168-0.153,0.195-0.294c0.029-0.224,0.057-0.756,0.043-1.4c0.182,0.168,0.504,0.351,0.77,0.42
		c-0.014,0.658-0.07,1.359-0.139,1.597c-0.084,0.253-0.225,0.421-0.422,0.532c-0.182,0.085-0.49,0.141-0.729,0.141h-0.756
		c-0.309,0-0.631-0.056-0.826-0.225c-0.225-0.182-0.266-0.378-0.266-1.022v-3.18h0.883v3.208c0,0.084,0.027,0.182,0.111,0.224
		c0.07,0.043,0.168,0.057,0.295,0.057H396.025z"/>
	<path fill="#4D4D4D" d="M410.404,33.471v5.813h-1.121v-0.799h-9.861v-5.015h1.121v3.992h3.781v-4.875h-4.285v-4.79h1.078v3.768
		h3.207v-5.042h1.121v5.042h3.293v-3.781h1.119v4.804h-4.412v4.875h3.838v-3.992H410.404z"/>
	<path fill="#4D4D4D" d="M424.139,27.966v10.926h-1.107v-1.12h-8.236v1.19h-1.051V27.966H424.139z M423.031,36.721v-7.719h-8.236
		v7.719H423.031z"/>
	<path fill="#4D4D4D" d="M426.512,40.614c1.205-1.988,1.793-4.355,1.793-6.737c0-2.381-0.588-4.734-1.793-6.737l0.785-0.364
		c1.303,2.087,2.072,4.356,2.072,7.102c0,2.76-0.77,5.015-2.072,7.116L426.512,40.614z"/>
	<path fill="#4D4D4D" d="M50.182,56.823c-0.435-0.35-1.219-0.868-1.919-1.316c-0.504,0.687-1.316,1.162-2.633,1.484
		c-0.084-0.21-0.336-0.574-0.532-0.742c2.451-0.561,2.914-1.555,3.04-3.74h0.925c-0.056,0.911-0.168,1.653-0.406,2.27
		c0.756,0.435,1.653,1.009,2.171,1.387L50.182,56.823z M46.61,54.736c-0.224-0.351-0.714-0.952-1.079-1.4l0.63-0.448
		c0.378,0.406,0.869,0.98,1.107,1.316L46.61,54.736z M56.892,57.02h0.364v2.521h-1.037V57.86h-9.595v1.681h-0.995V57.02h11.052
		c-0.63-0.448-1.639-1.051-2.55-1.555c-0.504,0.658-1.302,1.135-2.563,1.457c-0.084-0.225-0.336-0.589-0.532-0.785
		c2.367-0.546,2.843-1.54,2.969-3.613h0.953c-0.056,0.868-0.168,1.597-0.42,2.199c0.995,0.504,2.241,1.218,2.886,1.667L56.892,57.02
		z M51.205,61.235c-0.154,0.28-0.294,0.561-0.406,0.813h5.589v3.25h-1.022V64.92h-7.592v0.392h-0.995v-3.264h3.096
		c0.112-0.237,0.238-0.546,0.351-0.813h-2.536V58.63h7.536v2.605H51.205z M55.365,62.818h-7.592v1.317h7.592V62.818z M48.669,60.521
		h5.533v-1.177h-5.533V60.521z M51.26,53.531c-0.406,0.505-0.882,1.037-1.247,1.387l-0.616-0.294
		c0.336-0.392,0.785-1.009,1.009-1.429L51.26,53.531z M52.521,54.652c-0.238-0.364-0.7-0.967-1.064-1.401l0.616-0.462
		c0.393,0.435,0.883,0.995,1.107,1.331L52.521,54.652z M57.424,53.504c-0.462,0.532-0.98,1.093-1.373,1.456l-0.659-0.308
		c0.378-0.406,0.869-1.064,1.135-1.485L57.424,53.504z"/>
	<path fill="#4D4D4D" d="M64.224,63.057c-1.009,0.757-2.844,1.471-4.3,1.807c-0.14-0.252-0.42-0.588-0.63-0.784
		c1.442-0.238,3.222-0.784,4.146-1.387L64.224,63.057z M71.536,61.109v0.883h-5.617v3.319h-1.022v-3.319h-5.533v-0.883h5.533v-1.05
		H60.68v-0.799h4.216v-1.009h-4.931v-0.84h3.025c-0.14-0.393-0.42-0.938-0.714-1.345l0.742-0.196h-3.614v-0.869h2.255
		c-0.21-0.56-0.687-1.4-1.121-2.03l0.882-0.309c0.49,0.631,0.995,1.499,1.191,2.06l-0.701,0.279h1.709v-2.479h0.98v2.479h1.667
		v-2.479h0.995v2.479h1.695l-0.561-0.182c0.393-0.574,0.841-1.499,1.079-2.129l1.065,0.294c-0.393,0.715-0.854,1.484-1.219,2.017
		h2.157v0.869h-3.642l0.911,0.252c-0.322,0.462-0.659,0.938-0.967,1.289h3.208v0.84h-5.071v1.009h4.384v0.799h-4.384v1.05H71.536z
		 M63.286,55.871c0.322,0.434,0.616,1.009,0.742,1.387l-0.574,0.154h3.866l-0.49-0.154c0.28-0.393,0.63-0.98,0.826-1.387H63.286z
		 M67.446,62.622c1.316,0.435,3.096,1.107,4.062,1.556l-0.644,0.658c-0.925-0.448-2.704-1.163-4.034-1.653L67.446,62.622z"/>
	<path fill="#4D4D4D" d="M77.51,62.58h-3.012v1.121h-0.967V53.434h3.979V62.58z M74.498,54.386v3.096h2.031v-3.096H74.498z
		 M76.529,61.628v-3.222h-2.031v3.222H76.529z M82.272,55.129v1.807h3.054v0.925h-1.219v1.526h1.625v0.925h-1.625v3.754
		c0,0.603-0.154,0.896-0.574,1.051c-0.448,0.168-1.135,0.182-2.269,0.182c-0.042-0.294-0.196-0.7-0.336-0.98
		c0.854,0.028,1.639,0.028,1.863,0.014c0.224-0.014,0.294-0.069,0.294-0.279v-3.74h-5.267v-0.925h5.267V57.86h-4.707v-0.925h2.872
		v-1.807h-3.488V54.19h3.488v-1.682h1.022v1.682h3.502v0.938H82.272z M79.527,60.802c0.658,0.714,1.442,1.736,1.807,2.381
		l-0.91,0.561c-0.336-0.673-1.093-1.695-1.765-2.451L79.527,60.802z"/>
	<path fill="#4D4D4D" d="M88.764,57.888v7.424h-1.037v-12.2h5.057v4.776H88.764z M88.764,53.924v1.163h3.025v-1.163H88.764z
		 M91.79,57.09v-1.233h-3.025v1.233H91.79z M91.748,64.009v0.701h-0.938v-5.771h5.197v5.07H91.748z M91.748,59.737v1.303h3.292
		v-1.303H91.748z M95.04,63.183v-1.358h-3.292v1.358H95.04z M99.214,63.925c0,0.659-0.154,1.009-0.617,1.191
		c-0.448,0.168-1.19,0.182-2.353,0.182c-0.042-0.294-0.21-0.784-0.364-1.064c0.854,0.042,1.709,0.028,1.961,0.014
		c0.238,0,0.322-0.084,0.322-0.336v-6.009h-4.132v-4.791h5.183V63.925z M95.025,53.924v1.163h3.138v-1.163H95.025z M98.163,57.104
		v-1.247h-3.138v1.247H98.163z"/>
	<path fill="#4D4D4D" d="M106.364,55.563c0-0.645,0.504-1.051,1.065-1.051c0.56,0,1.064,0.406,1.064,1.051s-0.504,1.051-1.064,1.051
		C106.868,56.613,106.364,56.207,106.364,55.563z M106.364,62.427c0-0.645,0.504-1.064,1.065-1.064c0.56,0,1.064,0.42,1.064,1.064
		c0,0.63-0.504,1.05-1.064,1.05C106.868,63.477,106.364,63.057,106.364,62.427z"/>
	<path fill="#4D4D4D" d="M118.697,59.177c-0.336,1.261-0.827,2.619-1.373,3.642c0.294,0.154,0.603,0.421,1.107,0.729
		c0.98,0.603,2.241,0.7,3.88,0.7c1.793,0,4.048-0.126,5.589-0.294c-0.112,0.28-0.294,0.771-0.308,1.079
		c-1.037,0.069-3.656,0.153-5.309,0.153c-1.821,0-3.04-0.153-4.063-0.771c-0.56-0.336-1.079-0.812-1.387-0.812
		c-0.322,0-0.798,0.868-1.219,1.765l-0.7-0.953c0.49-0.7,0.98-1.274,1.415-1.555c0.462-0.784,0.883-1.919,1.177-2.941h-1.821
		c0.392-0.826,0.854-2.003,1.247-3.082h-1.863v-0.938h3.151c-0.364,0.995-0.813,2.157-1.218,3.11h1.05l0.154-0.042L118.697,59.177z
		 M116.722,55.24c-0.154-0.588-0.477-1.54-0.701-2.255l0.938-0.252c0.238,0.7,0.575,1.61,0.743,2.185L116.722,55.24z M120.322,57.86
		c-0.056,1.736-0.28,3.81-0.98,5.322c-0.182-0.154-0.602-0.406-0.84-0.504c0.798-1.765,0.869-4.217,0.869-5.981v-3.614h7.592v9.147
		c0,0.561-0.14,0.813-0.49,0.98c-0.364,0.154-0.966,0.168-1.961,0.168c-0.028-0.252-0.168-0.645-0.294-0.896
		c0.686,0.028,1.331,0.028,1.513,0.014c0.182-0.014,0.266-0.069,0.266-0.266v-4.37H120.322z M120.336,53.952v1.148h2.354v-1.148
		H120.336z M120.336,57.104h2.354v-1.247h-2.354v0.841V57.104z M124.944,58.673v3.18h-3.712v-3.18H124.944z M124.16,59.387h-2.171
		v1.765h2.171V59.387z M125.995,53.952h-2.423v1.148h2.423V53.952z M125.995,57.104v-1.247h-2.423v1.247H125.995z"/>
	<path fill="#4D4D4D" d="M148.088,58.21v1.135h-12.719V58.21H148.088z"/>
	<path fill="#4D4D4D" d="M154.312,58.883c-0.448,0-0.841,0.28-1.205,0.952l-0.714-0.504c0.574-0.98,1.274-1.401,1.961-1.401
		c1.219,0,1.891,1.317,2.773,1.317c0.448,0,0.84-0.28,1.19-0.953l0.729,0.519c-0.574,0.98-1.274,1.4-1.947,1.4
		C155.853,60.213,155.194,58.883,154.312,58.883z"/>
	<path fill="#4D4D4D" d="M167.011,59.177c-0.336,1.261-0.827,2.619-1.373,3.642c0.294,0.154,0.603,0.421,1.107,0.729
		c0.98,0.603,2.241,0.7,3.88,0.7c1.793,0,4.048-0.126,5.589-0.294c-0.112,0.28-0.294,0.771-0.308,1.079
		c-1.037,0.069-3.656,0.153-5.309,0.153c-1.821,0-3.04-0.153-4.063-0.771c-0.56-0.336-1.079-0.812-1.387-0.812
		c-0.322,0-0.798,0.868-1.219,1.765l-0.7-0.953c0.49-0.7,0.98-1.274,1.415-1.555c0.462-0.784,0.882-1.919,1.176-2.941H164
		c0.392-0.826,0.854-2.003,1.247-3.082h-1.863v-0.938h3.151c-0.364,0.995-0.813,2.157-1.219,3.11h1.051l0.154-0.042L167.011,59.177z
		 M165.036,55.24c-0.154-0.588-0.477-1.54-0.701-2.255l0.938-0.252c0.238,0.7,0.575,1.61,0.743,2.185L165.036,55.24z M168.636,57.86
		c-0.056,1.736-0.28,3.81-0.98,5.322c-0.182-0.154-0.602-0.406-0.84-0.504c0.798-1.765,0.869-4.217,0.869-5.981v-3.614h7.592v9.147
		c0,0.561-0.14,0.813-0.49,0.98c-0.364,0.154-0.966,0.168-1.961,0.168c-0.028-0.252-0.168-0.645-0.294-0.896
		c0.686,0.028,1.331,0.028,1.513,0.014c0.182-0.014,0.266-0.069,0.266-0.266v-4.37H168.636z M168.65,53.952v1.148h2.354v-1.148
		H168.65z M168.65,57.104h2.354v-1.247h-2.354v0.841V57.104z M173.258,58.673v3.18h-3.712v-3.18H173.258z M172.474,59.387h-2.171
		v1.765h2.171V59.387z M174.309,53.952h-2.423v1.148h2.423V53.952z M174.309,57.104v-1.247h-2.423v1.247H174.309z"/>
	<path fill="#4D4D4D" d="M189.948,63.519v1.023h-12.369v-1.023h3.404c0.28-1.274,0.574-2.913,0.854-4.58h-2.605v-1.022h2.773
		c0.168-1.036,0.322-2.073,0.448-3.012h-3.992v-1.022h10.478v1.022h-5.379c-0.14,0.938-0.294,1.989-0.462,3.012h3.53l0.182-0.056
		l0.799,0.084c-0.098,1.54-0.294,3.754-0.504,5.574H189.948z M182.944,58.938c-0.266,1.667-0.561,3.306-0.827,4.58h3.908
		c0.154-1.498,0.322-3.291,0.434-4.58H182.944z"/>
	<path fill="#4D4D4D" d="M194.561,59.064c0-3.571,1.247-5.295,3.208-5.295c1.947,0,3.194,1.737,3.194,5.295
		c0,3.572-1.247,5.351-3.194,5.351C195.808,64.415,194.561,62.637,194.561,59.064z M199.716,59.064c0-2.997-0.785-4.258-1.947-4.258
		c-1.177,0-1.961,1.261-1.961,4.258c0,3.025,0.784,4.328,1.961,4.328C198.931,63.393,199.716,62.09,199.716,59.064z"/>
	<path fill="#4D4D4D" d="M203.157,62.566c0.435,0.49,1.065,0.784,1.723,0.784c1.331,0,2.479-1.092,2.577-4.286
		c-0.616,0.771-1.499,1.274-2.367,1.274c-1.709,0-2.83-1.106-2.83-3.235c0-1.989,1.345-3.334,2.942-3.334
		c1.975,0,3.446,1.625,3.446,4.889c0,4.16-1.793,5.757-3.726,5.757c-1.106,0-1.891-0.448-2.465-1.05L203.157,62.566z
		 M207.444,58.014c-0.14-2.115-0.925-3.235-2.241-3.235c-0.98,0-1.737,0.925-1.737,2.325c0,1.387,0.617,2.283,1.835,2.283
		C205.987,59.387,206.757,58.994,207.444,58.014z"/>
	<path fill="#4D4D4D" d="M210.437,57.804c0-0.588,0.42-0.994,0.925-0.994c0.504,0,0.924,0.406,0.924,0.994
		c0,0.561-0.42,0.967-0.924,0.967C210.857,58.771,210.437,58.364,210.437,57.804z M210.437,63.449c0-0.574,0.42-0.995,0.925-0.995
		c0.504,0,0.924,0.421,0.924,0.995s-0.42,0.966-0.924,0.966C210.857,64.415,210.437,64.023,210.437,63.449z"/>
	<path fill="#4D4D4D" d="M214.54,63.169h2.283v-7.662h-1.821v-0.813c0.911-0.168,1.569-0.406,2.129-0.729h0.98v9.203h2.059v1.064
		h-5.63V63.169z"/>
	<path fill="#4D4D4D" d="M221.469,63.057l0.631-0.841c0.588,0.589,1.33,1.135,2.521,1.135c1.205,0,2.186-0.924,2.186-2.423
		c0-1.471-0.842-2.34-2.131-2.34c-0.686,0-1.119,0.211-1.709,0.603l-0.686-0.42l0.322-4.805h5v1.093h-3.879l-0.252,2.97
		c0.447-0.252,0.91-0.406,1.525-0.406c1.709,0,3.096,1.008,3.096,3.264c0,2.255-1.625,3.529-3.361,3.529
		C223.137,64.415,222.154,63.743,221.469,63.057z"/>
	<path fill="#4D4D4D" d="M232.627,59.821h3.586v0.98h-3.586V59.821z"/>
	<path fill="#4D4D4D" d="M241.209,63.169h2.283v-7.662h-1.82v-0.813c0.91-0.168,1.568-0.406,2.129-0.729h0.98v9.203h2.059v1.064
		h-5.631V63.169z"/>
	<path fill="#4D4D4D" d="M248.375,61.684c0-1.372,0.953-2.325,1.893-2.829v-0.07c-0.758-0.518-1.387-1.288-1.387-2.367
		c0-1.568,1.203-2.605,2.814-2.605c1.752,0,2.816,1.121,2.816,2.704c0,1.078-0.758,2.003-1.373,2.479v0.07
		c0.896,0.519,1.736,1.289,1.736,2.689c0,1.499-1.289,2.661-3.221,2.661C249.764,64.415,248.375,63.267,248.375,61.684z
		 M253.656,61.726c0-1.372-1.26-1.891-2.717-2.479c-0.826,0.532-1.4,1.345-1.4,2.325c0,1.093,0.91,1.891,2.143,1.891
		C252.857,63.463,253.656,62.749,253.656,61.726z M253.418,56.585c0-1.008-0.645-1.835-1.75-1.835c-0.939,0-1.625,0.673-1.625,1.667
		c0,1.232,1.107,1.766,2.311,2.241C253.055,58.042,253.418,57.342,253.418,56.585z"/>
	<path fill="#4D4D4D" d="M256.539,57.804c0-0.588,0.42-0.994,0.924-0.994s0.924,0.406,0.924,0.994c0,0.561-0.42,0.967-0.924,0.967
		S256.539,58.364,256.539,57.804z M256.539,63.449c0-0.574,0.42-0.995,0.924-0.995s0.924,0.421,0.924,0.995s-0.42,0.966-0.924,0.966
		S256.539,64.023,256.539,63.449z"/>
	<path fill="#4D4D4D" d="M259.814,63.015l0.645-0.841c0.602,0.631,1.387,1.177,2.549,1.177c1.219,0,2.088-0.729,2.088-1.904
		c0-1.233-0.828-2.06-3.195-2.06v-0.98c2.115,0,2.844-0.854,2.844-1.961c0-0.995-0.672-1.625-1.736-1.653
		c-0.826,0.028-1.555,0.448-2.129,1.022l-0.688-0.813c0.771-0.714,1.682-1.232,2.873-1.232c1.723,0,2.982,0.925,2.982,2.577
		c0,1.247-0.742,2.073-1.834,2.479v0.057c1.219,0.28,2.186,1.204,2.186,2.605c0,1.835-1.473,2.927-3.293,2.927
		C261.494,64.415,260.486,63.743,259.814,63.015z"/>
	<path fill="#4D4D4D" d="M267.863,59.064c0-3.571,1.246-5.295,3.209-5.295c1.945,0,3.193,1.737,3.193,5.295
		c0,3.572-1.248,5.351-3.193,5.351C269.109,64.415,267.863,62.637,267.863,59.064z M273.018,59.064c0-2.997-0.783-4.258-1.945-4.258
		c-1.178,0-1.963,1.261-1.963,4.258c0,3.025,0.785,4.328,1.963,4.328C272.234,63.393,273.018,62.09,273.018,59.064z"/>
	<path fill="#4D4D4D" d="M279.373,59.877c0-2.745,0.77-5.015,2.059-7.102l0.799,0.364c-1.219,2.003-1.793,4.356-1.793,6.737
		c0,2.382,0.574,4.749,1.793,6.737l-0.799,0.379C280.143,64.892,279.373,62.637,279.373,59.877z"/>
	<path fill="#4D4D4D" d="M286.766,52.804c-0.266,0.924-0.588,1.82-0.951,2.703v9.777h-0.98v-7.788
		c-0.322,0.546-0.645,1.036-0.996,1.484c-0.07-0.238-0.336-0.798-0.518-1.064c1.078-1.316,1.961-3.334,2.508-5.379L286.766,52.804z
		 M291.023,56.333l0.59,0.168c-0.42,4.734-1.961,7.41-4.357,8.769c-0.139-0.237-0.42-0.602-0.629-0.784
		c1.162-0.603,2.129-1.61,2.842-3.067c-0.447-0.504-1.232-1.177-1.932-1.723c-0.168,0.308-0.379,0.616-0.604,0.882
		c-0.111-0.182-0.393-0.63-0.588-0.826c1.037-1.316,1.625-3.292,1.947-5.477h-1.346v-0.98h4.609v0.98h-2.311
		c-0.127,0.728-0.268,1.429-0.436,2.101h2.045L291.023,56.333z M288.545,57.342c-0.168,0.532-0.363,1.036-0.574,1.526
		c0.686,0.49,1.443,1.107,1.92,1.569c0.322-0.883,0.559-1.934,0.713-3.096H288.545z M293.266,61.908h-0.91v-7.774h0.91V61.908z
		 M295.646,52.579v11.332c0,0.673-0.168,0.994-0.588,1.135c-0.434,0.182-1.162,0.21-2.283,0.21c-0.057-0.28-0.225-0.756-0.379-1.036
		c0.883,0.027,1.695,0.014,1.92,0.014c0.252,0,0.336-0.084,0.336-0.322V52.579H295.646z"/>
	<path fill="#4D4D4D" d="M300.766,52.804c-0.252,0.994-0.574,1.975-0.924,2.899v9.595h-0.994v-7.452
		c-0.295,0.532-0.604,1.037-0.939,1.471c-0.098-0.252-0.363-0.798-0.547-1.05c1.066-1.387,1.92-3.517,2.438-5.674L300.766,52.804z
		 M302.195,62.482v2.787h-0.967V53.14h3.824v4.342h-2.857v1.499h2.549v0.883h-2.549V61.6h2.703v0.883H302.195z M302.195,54.021
		v2.563h1.932v-2.563H302.195z M309.73,58.7c-0.336,1.695-0.924,3.04-1.723,4.076c0.631,0.757,1.414,1.359,2.311,1.724
		c-0.209,0.168-0.49,0.532-0.629,0.784c-0.896-0.406-1.654-1.022-2.283-1.808c-0.813,0.827-1.766,1.429-2.83,1.85
		c-0.111-0.225-0.35-0.589-0.533-0.771c1.051-0.364,2.031-0.98,2.816-1.835c-0.602-0.91-1.051-1.989-1.373-3.151l0.645-0.154h-0.91
		v-0.883h3.74l0.168-0.028L309.73,58.7z M309.535,57.454h-3.922v-0.896h2.955v-2.521h-2.955V53.14h3.922V57.454z M306.299,59.415
		c0.266,0.938,0.631,1.807,1.148,2.577c0.504-0.715,0.896-1.569,1.162-2.577H306.299z"/>
	<path fill="#4D4D4D" d="M322.428,53.476v11.612h-1.092v-0.854h-6.947v0.91h-1.051V53.476H322.428z M314.389,54.498v3.782h6.947
		v-3.782H314.389z M321.336,63.211v-3.908h-6.947v3.908H321.336z"/>
	<path fill="#4D4D4D" d="M329.914,53.434c-0.447,1.148-0.994,2.521-1.498,3.628c1.078,1.148,1.344,2.144,1.344,3.012
		c0,0.771-0.168,1.358-0.559,1.639c-0.211,0.141-0.477,0.238-0.758,0.28c-0.293,0.028-0.672,0.028-1.008,0.014
		c-0.014-0.266-0.098-0.658-0.238-0.924c0.322,0.027,0.631,0.027,0.854,0.014c0.197,0,0.352-0.042,0.463-0.14
		c0.238-0.154,0.322-0.519,0.322-0.98c-0.014-0.757-0.279-1.695-1.344-2.802c0.42-0.995,0.854-2.214,1.176-3.152h-1.793V65.27
		h-0.924V53.083h3.123l0.154-0.056L329.914,53.434z M332.381,61.404c-0.547,1.106-1.332,2.283-2.061,3.054
		c-0.168-0.154-0.545-0.435-0.783-0.561c0.729-0.715,1.457-1.766,1.918-2.76L332.381,61.404z M334.943,52.761
		c-0.098,0.183-0.211,0.351-0.322,0.533c1.178,1.484,2.508,2.395,3.797,3.123c-0.238,0.183-0.561,0.532-0.688,0.813
		c-1.246-0.798-2.438-1.723-3.627-3.193c-1.023,1.33-2.383,2.521-3.754,3.319c-0.168-0.224-0.436-0.546-0.701-0.742
		c1.752-0.91,3.488-2.508,4.426-4.188L334.943,52.761z M334.691,60.354v3.74c0,0.588-0.141,0.854-0.533,1.022
		c-0.406,0.168-1.049,0.182-2.045,0.182c-0.055-0.28-0.209-0.687-0.363-0.967c0.783,0.028,1.457,0.028,1.652,0.028
		c0.211-0.014,0.281-0.084,0.281-0.266v-3.74h-3.656V59.4h3.656v-1.694h-2.354v-0.925h5.49v0.925h-2.129V59.4h3.432v0.953H334.691z
		 M336.273,60.998c0.785,0.896,1.639,2.087,2.045,2.857l-0.84,0.476c-0.393-0.798-1.246-2.03-1.988-2.913L336.273,60.998z"/>
	<path fill="#4D4D4D" d="M345.455,54.597l0.715,0.237c-0.729,5.491-2.885,8.783-5.855,10.422c-0.168-0.266-0.588-0.672-0.854-0.854
		c1.625-0.84,2.982-2.143,3.977-3.992c-0.531-0.687-1.441-1.597-2.268-2.354c-0.281,0.49-0.574,0.911-0.883,1.303
		c-0.168-0.182-0.631-0.518-0.855-0.658c1.275-1.442,2.158-3.754,2.662-6.191l1.023,0.196c-0.154,0.673-0.309,1.316-0.506,1.947
		h2.635L345.455,54.597z M342.275,55.633c-0.195,0.561-0.42,1.093-0.672,1.597c0.785,0.658,1.695,1.485,2.311,2.171
		c0.449-1.092,0.799-2.339,1.037-3.768H342.275z M348.816,56.726c1.205,0.952,2.719,2.283,3.461,3.165l-0.826,0.715
		c-0.631-0.799-1.906-1.976-3.012-2.914v7.606h-1.064V52.523h1.064v4.51L348.816,56.726z"/>
	<path fill="#4D4D4D" d="M353.418,66.614c1.205-1.988,1.793-4.355,1.793-6.737c0-2.381-0.588-4.734-1.793-6.737l0.785-0.364
		c1.303,2.087,2.072,4.356,2.072,7.102c0,2.76-0.77,5.015-2.072,7.116L353.418,66.614z"/>
	<path fill="#4D4D4D" d="M84.455,81.45h-4.356v2.256h-0.995v-2.998h5.351v-0.896h-4.749v-0.742h10.562v0.742h-4.805v0.896h5.449
		v2.998H89.89V81.45h-4.427v3.18h-1.008V81.45z M89.567,90.275c0.742,0,0.882-0.238,0.953-1.625c0.238,0.154,0.616,0.28,0.91,0.336
		c-0.154,1.695-0.462,2.13-1.793,2.13h-3.222c-1.555,0-2.003-0.28-2.003-1.401v-0.434h-3.096v0.728h-1.009v-4.86h9.441v4.133h-4.329
		v0.434c0,0.477,0.168,0.561,1.037,0.561H89.567z M80.35,83.86c0.883-0.084,2.087-0.267,3.32-0.463l0.042,0.658
		c-1.079,0.225-2.144,0.448-3.054,0.617L80.35,83.86z M81.023,81.73c0.896,0.141,2.059,0.463,2.689,0.729l-0.309,0.645
		c-0.616-0.294-1.779-0.63-2.703-0.813L81.023,81.73z M81.317,85.905v0.952h3.096v-0.952H81.317z M84.413,88.524v-0.967h-3.096
		v0.967H84.413z M88.727,85.905h-3.306v0.952h3.306V85.905z M88.727,88.524v-0.967h-3.306v0.967H88.727z M89.315,84.715
		c-0.756-0.267-2.171-0.603-3.264-0.771l0.252-0.631c1.064,0.126,2.493,0.42,3.25,0.687L89.315,84.715z M89.329,82.249
		c-0.798,0.336-1.933,0.631-2.731,0.799l-0.364-0.547c0.798-0.168,1.975-0.603,2.647-0.84L89.329,82.249z"/>
	<path fill="#4D4D4D" d="M92.613,80.891h5.113v0.854h-5.113V80.891z M97.25,83.552h-4.063v-0.826h4.063V83.552z M93.188,84.546
		h4.063v0.827h-4.063V84.546z M97.362,90.458h-3.264v0.658h-0.911v-4.707h4.174V90.458z M94.098,87.277v2.312h2.339v-2.312H94.098z
		 M95.233,80.736c-0.21-0.504-0.658-1.289-1.037-1.863l0.798-0.406c0.406,0.574,0.869,1.303,1.079,1.793L95.233,80.736z
		 M102.125,83.79v2.325h2.507v5.141h-1.008v-0.504h-4.021v0.56h-0.952v-5.196h2.507V83.79h-3.04v-0.995h3.04v-2.493
		c-0.911,0.141-1.835,0.267-2.689,0.364c-0.028-0.238-0.154-0.603-0.266-0.84c2.045-0.253,4.454-0.701,5.799-1.219l0.672,0.826
		c-0.714,0.267-1.611,0.49-2.549,0.687v2.675h3.25v0.995H102.125z M103.624,87.067h-4.021v2.731h4.021V87.067z"/>
	<path fill="#4D4D4D" d="M111.936,81.563c0-0.645,0.504-1.051,1.065-1.051c0.56,0,1.064,0.406,1.064,1.051s-0.504,1.051-1.064,1.051
		C112.44,82.613,111.936,82.207,111.936,81.563z M111.936,88.427c0-0.645,0.504-1.064,1.065-1.064c0.56,0,1.064,0.42,1.064,1.064
		c0,0.63-0.504,1.05-1.064,1.05C112.44,89.477,111.936,89.057,111.936,88.427z"/>
	<path fill="#4D4D4D" d="M120.684,85.064c0-3.571,1.247-5.295,3.208-5.295c1.947,0,3.194,1.737,3.194,5.295
		c0,3.572-1.247,5.351-3.194,5.351C121.93,90.415,120.684,88.637,120.684,85.064z M125.838,85.064c0-2.997-0.785-4.258-1.947-4.258
		c-1.177,0-1.961,1.261-1.961,4.258c0,3.025,0.784,4.328,1.961,4.328C125.054,89.393,125.838,88.09,125.838,85.064z"/>
	<path fill="#4D4D4D" d="M128.383,89.477c3.222-2.815,4.707-4.86,4.707-6.625c0-1.177-0.616-2.031-1.891-2.031
		c-0.84,0-1.569,0.519-2.129,1.19l-0.742-0.729c0.84-0.91,1.723-1.513,3.025-1.513c1.835,0,2.983,1.205,2.983,3.04
		c0,2.045-1.611,4.132-4.02,6.415c0.532-0.042,1.163-0.098,1.681-0.098h2.843v1.106h-6.458V89.477z"/>
	<path fill="#4D4D4D" d="M136.181,85.821h3.586v0.98h-3.586V85.821z"/>
	<path fill="#4D4D4D" d="M141.025,87.684c0-1.372,0.953-2.325,1.891-2.829v-0.07c-0.756-0.518-1.387-1.288-1.387-2.367
		c0-1.568,1.205-2.605,2.815-2.605c1.751,0,2.815,1.121,2.815,2.704c0,1.078-0.756,2.003-1.373,2.479v0.07
		c0.896,0.519,1.737,1.289,1.737,2.689c0,1.499-1.289,2.661-3.222,2.661C142.412,90.415,141.025,89.267,141.025,87.684z
		 M146.306,87.726c0-1.372-1.261-1.891-2.717-2.479c-0.827,0.532-1.401,1.345-1.401,2.325c0,1.093,0.911,1.891,2.143,1.891
		C145.507,89.463,146.306,88.749,146.306,87.726z M146.067,82.585c0-1.008-0.644-1.835-1.75-1.835c-0.939,0-1.625,0.673-1.625,1.667
		c0,1.232,1.106,1.766,2.311,2.241C145.704,84.042,146.067,83.342,146.067,82.585z"/>
	<path fill="#4D4D4D" d="M153.824,81.059h-4.973v-1.093h6.429v0.771c-2.409,3.096-2.857,5.477-3.012,9.497h-1.331
		C151.106,86.339,151.82,83.86,153.824,81.059z"/>
	<path fill="#4D4D4D" d="M161.594,81.059h-4.973v-1.093h6.429v0.771c-2.409,3.096-2.857,5.477-3.012,9.497h-1.331
		C158.876,86.339,159.59,83.86,161.594,81.059z"/>
	<path fill="#4D4D4D" d="M164.937,89.169h2.284v-7.662h-1.821v-0.813c0.911-0.168,1.569-0.406,2.129-0.729h0.98v9.203h2.059v1.064
		h-5.631V89.169z"/>
	<path fill="#4D4D4D" d="M177.133,81.059h-4.973v-1.093h6.429v0.771c-2.409,3.096-2.857,5.477-3.012,9.497h-1.331
		C174.416,86.339,175.13,83.86,177.133,81.059z"/>
	<path fill="#4D4D4D" d="M179.636,89.057l0.63-0.841c0.588,0.589,1.331,1.135,2.521,1.135c1.205,0,2.185-0.924,2.185-2.423
		c0-1.471-0.84-2.34-2.129-2.34c-0.687,0-1.121,0.211-1.709,0.603l-0.687-0.42l0.322-4.805h5v1.093h-3.88l-0.252,2.97
		c0.448-0.252,0.91-0.406,1.527-0.406c1.708,0,3.095,1.008,3.095,3.264c0,2.255-1.625,3.529-3.362,3.529
		C181.303,90.415,180.323,89.743,179.636,89.057z"/>
	<path fill="#4D4D4D" d="M187.406,89.057l0.63-0.841c0.588,0.589,1.331,1.135,2.521,1.135c1.205,0,2.185-0.924,2.185-2.423
		c0-1.471-0.84-2.34-2.129-2.34c-0.687,0-1.121,0.211-1.709,0.603l-0.687-0.42l0.322-4.805h5v1.093h-3.88l-0.252,2.97
		c0.448-0.252,0.91-0.406,1.526-0.406c1.709,0,3.096,1.008,3.096,3.264c0,2.255-1.625,3.529-3.362,3.529
		C189.073,90.415,188.093,89.743,187.406,89.057z"/>
	<path fill="#4D4D4D" d="M196.016,89.169h2.284v-7.662h-1.821v-0.813c0.911-0.168,1.569-0.406,2.129-0.729h0.98v9.203h2.059v1.064
		h-5.631V89.169z"/>
	<path fill="#4D4D4D" d="M207.26,78.859c-0.392,1.036-0.882,2.059-1.443,3.025v9.385h-0.98v-7.857
		c-0.448,0.644-0.924,1.218-1.415,1.723c-0.112-0.238-0.393-0.784-0.588-1.009c1.373-1.345,2.675-3.432,3.46-5.561L207.26,78.859z
		 M213.998,87.376h1.961v0.84h-1.961v1.989c0,0.561-0.126,0.827-0.561,0.967c-0.42,0.14-1.121,0.14-2.185,0.14
		c-0.056-0.266-0.196-0.63-0.336-0.882c0.869,0.028,1.583,0.028,1.793,0c0.224,0,0.28-0.057,0.28-0.238v-1.976h-6.345v-0.84h6.345
		v-0.91c-2.213,0.069-4.37,0.14-5.967,0.168l-0.098-0.841c1.064,0,2.451-0.014,3.95-0.042v-0.854h-3.278v-3.712h3.278v-0.799h-3.838
		v-0.798h3.838v-0.967h1.009v0.967h3.936v0.798h-3.936v0.799h3.376v3.712h-1.037c0.7,0.519,1.415,1.177,1.821,1.653l-0.742,0.476
		c-0.14-0.182-0.336-0.392-0.561-0.616l-0.742,0.028V87.376z M209.88,90.598c-0.351-0.519-1.093-1.331-1.751-1.891l0.77-0.491
		c0.645,0.533,1.415,1.303,1.779,1.821L209.88,90.598z M208.549,82.711h2.325v-0.868h-2.325V82.711z M210.874,84.238v-0.896h-2.325
		v0.896H210.874z M211.883,81.843v0.868h2.381v-0.868H211.883z M214.264,83.342h-2.381v0.896h2.381V83.342z M211.883,85.723
		l2.073-0.042c-0.28-0.238-0.561-0.462-0.827-0.658l0.224-0.126h-1.471V85.723z"/>
	<path fill="#4D4D4D" d="M229.734,88.65h-12.34v-0.882h1.989v-6.29h3.361c0.057-0.266,0.113-0.561,0.141-0.882h-5.098V79.7h5.225
		c0.055-0.421,0.098-0.854,0.125-1.205l1.107,0.126l-0.182,1.079h5.322v0.896h-5.477c-0.057,0.321-0.113,0.616-0.168,0.882h4.033
		v6.29h1.961V88.65z M222.338,89.519c-1.105,0.701-2.842,1.401-4.229,1.793c-0.168-0.21-0.49-0.532-0.714-0.728
		c1.4-0.379,3.151-1.065,4.034-1.653L222.338,89.519z M220.393,82.193v0.938h6.344v-0.938H220.393z M226.736,83.804h-6.344v0.799
		h6.344V83.804z M220.393,85.274v0.841h6.344v-0.841H220.393z M220.393,87.769h6.344v-0.981h-6.344V87.769z M225.504,88.889
		c1.555,0.49,3.264,1.163,4.287,1.667l-0.84,0.729c-0.953-0.532-2.535-1.205-4.092-1.723L225.504,88.889z"/>
	<path fill="#4D4D4D" d="M236.494,81.563c0-0.645,0.504-1.051,1.064-1.051s1.064,0.406,1.064,1.051s-0.504,1.051-1.064,1.051
		S236.494,82.207,236.494,81.563z M236.494,88.427c0-0.645,0.504-1.064,1.064-1.064s1.064,0.42,1.064,1.064
		c0,0.63-0.504,1.05-1.064,1.05S236.494,89.057,236.494,88.427z"/>
	<path fill="#4D4D4D" d="M245.24,85.064c0-3.571,1.246-5.295,3.209-5.295c1.945,0,3.193,1.737,3.193,5.295
		c0,3.572-1.248,5.351-3.193,5.351C246.486,90.415,245.24,88.637,245.24,85.064z M250.395,85.064c0-2.997-0.783-4.258-1.945-4.258
		c-1.178,0-1.963,1.261-1.963,4.258c0,3.025,0.785,4.328,1.963,4.328C249.611,89.393,250.395,88.09,250.395,85.064z"/>
	<path fill="#4D4D4D" d="M252.939,89.477c3.223-2.815,4.707-4.86,4.707-6.625c0-1.177-0.615-2.031-1.891-2.031
		c-0.84,0-1.568,0.519-2.129,1.19l-0.742-0.729c0.84-0.91,1.723-1.513,3.025-1.513c1.834,0,2.982,1.205,2.982,3.04
		c0,2.045-1.609,4.132-4.02,6.415c0.533-0.042,1.162-0.098,1.682-0.098h2.844v1.106h-6.459V89.477z"/>
	<path fill="#4D4D4D" d="M260.738,85.821h3.586v0.98h-3.586V85.821z"/>
	<path fill="#4D4D4D" d="M265.582,87.684c0-1.372,0.953-2.325,1.891-2.829v-0.07c-0.756-0.518-1.387-1.288-1.387-2.367
		c0-1.568,1.205-2.605,2.816-2.605c1.75,0,2.814,1.121,2.814,2.704c0,1.078-0.756,2.003-1.373,2.479v0.07
		c0.896,0.519,1.738,1.289,1.738,2.689c0,1.499-1.289,2.661-3.223,2.661C266.969,90.415,265.582,89.267,265.582,87.684z
		 M270.863,87.726c0-1.372-1.262-1.891-2.719-2.479c-0.826,0.532-1.4,1.345-1.4,2.325c0,1.093,0.91,1.891,2.145,1.891
		C270.064,89.463,270.863,88.749,270.863,87.726z M270.625,82.585c0-1.008-0.645-1.835-1.752-1.835
		c-0.938,0-1.625,0.673-1.625,1.667c0,1.232,1.107,1.766,2.313,2.241C270.26,84.042,270.625,83.342,270.625,82.585z"/>
	<path fill="#4D4D4D" d="M278.381,81.059h-4.973v-1.093h6.43v0.771c-2.41,3.096-2.857,5.477-3.012,9.497h-1.332
		C275.662,86.339,276.377,83.86,278.381,81.059z"/>
	<path fill="#4D4D4D" d="M286.15,81.059h-4.973v-1.093h6.43v0.771c-2.408,3.096-2.857,5.477-3.012,9.497h-1.33
		C283.434,86.339,284.148,83.86,286.15,81.059z"/>
	<path fill="#4D4D4D" d="M289.494,89.169h2.283v-7.662h-1.82v-0.813c0.91-0.168,1.568-0.406,2.129-0.729h0.98v9.203h2.059v1.064
		h-5.631V89.169z"/>
	<path fill="#4D4D4D" d="M301.689,81.059h-4.973v-1.093h6.43v0.771c-2.408,3.096-2.857,5.477-3.012,9.497h-1.33
		C298.973,86.339,299.688,83.86,301.689,81.059z"/>
	<path fill="#4D4D4D" d="M304.193,89.057l0.631-0.841c0.588,0.589,1.33,1.135,2.521,1.135c1.205,0,2.186-0.924,2.186-2.423
		c0-1.471-0.842-2.34-2.131-2.34c-0.686,0-1.119,0.211-1.709,0.603l-0.686-0.42l0.322-4.805h5v1.093h-3.879l-0.252,2.97
		c0.447-0.252,0.91-0.406,1.525-0.406c1.709,0,3.096,1.008,3.096,3.264c0,2.255-1.625,3.529-3.361,3.529
		C305.861,90.415,304.879,89.743,304.193,89.057z"/>
	<path fill="#4D4D4D" d="M311.963,89.057l0.631-0.841c0.588,0.589,1.33,1.135,2.521,1.135c1.205,0,2.186-0.924,2.186-2.423
		c0-1.471-0.842-2.34-2.131-2.34c-0.686,0-1.119,0.211-1.709,0.603l-0.686-0.42l0.322-4.805h5v1.093h-3.879l-0.252,2.97
		c0.447-0.252,0.91-0.406,1.525-0.406c1.709,0,3.096,1.008,3.096,3.264c0,2.255-1.625,3.529-3.361,3.529
		C313.631,90.415,312.648,89.743,311.963,89.057z"/>
	<path fill="#4D4D4D" d="M319.957,89.477c3.221-2.815,4.707-4.86,4.707-6.625c0-1.177-0.617-2.031-1.893-2.031
		c-0.84,0-1.568,0.519-2.129,1.19l-0.742-0.729c0.84-0.91,1.723-1.513,3.025-1.513c1.836,0,2.984,1.205,2.984,3.04
		c0,2.045-1.611,4.132-4.02,6.415c0.531-0.042,1.162-0.098,1.68-0.098h2.844v1.106h-6.457V89.477z"/>
	<path fill="#4D4D4D" d="M124.156,105.966h1.569l1.975,5.491c0.238,0.714,0.476,1.429,0.728,2.143h0.07
		c0.238-0.714,0.462-1.429,0.7-2.143l1.961-5.491h1.568v10.268h-1.218v-5.688c0-0.882,0.098-2.129,0.168-3.025h-0.056l-0.813,2.34
		l-1.947,5.337h-0.869l-1.947-5.337l-0.813-2.34h-0.056c0.056,0.896,0.154,2.144,0.154,3.025v5.688h-1.177V105.966z"/>
	<path fill="#4D4D4D" d="M140.23,113.096h-3.754l-0.994,3.138h-1.317l3.488-10.268h1.443l3.488,10.268h-1.373L140.23,113.096z
		 M139.908,112.06l-0.49-1.569c-0.378-1.162-0.701-2.283-1.037-3.474h-0.056c-0.322,1.204-0.658,2.312-1.022,3.474l-0.504,1.569
		H139.908z"/>
	<path fill="#4D4D4D" d="M144.021,105.966h1.303v10.268h-1.303V105.966z"/>
	<path fill="#4D4D4D" d="M148.124,105.966h1.303v9.161h4.482v1.106h-5.785V105.966z"/>
	<path fill="#4D4D4D" d="M160.25,107.563c0-0.645,0.504-1.051,1.065-1.051c0.56,0,1.064,0.406,1.064,1.051s-0.504,1.051-1.064,1.051
		C160.754,108.613,160.25,108.207,160.25,107.563z M160.25,114.427c0-0.645,0.504-1.064,1.065-1.064c0.56,0,1.064,0.42,1.064,1.064
		c0,0.63-0.504,1.05-1.064,1.05C160.754,115.477,160.25,115.057,160.25,114.427z"/>
	<path fill="#4D4D4D" d="M172.498,106.232c0-0.519,0.378-0.827,0.882-0.827s0.882,0.309,0.882,0.827
		c0,0.476-0.378,0.826-0.882,0.826S172.498,106.708,172.498,106.232z M172.735,108.627h1.275v7.606h-1.275V108.627z"/>
	<path fill="#4D4D4D" d="M176.585,108.627h1.051l0.112,1.093h0.042c0.729-0.714,1.513-1.288,2.55-1.288
		c1.597,0,2.325,1.036,2.325,2.983v4.818h-1.275v-4.65c0-1.429-0.434-2.031-1.443-2.031c-0.784,0-1.316,0.393-2.087,1.163v5.519
		h-1.275V108.627z"/>
	<path fill="#4D4D4D" d="M188.557,106.12c-0.28-0.126-0.588-0.196-0.854-0.196c-0.729,0-1.079,0.519-1.079,1.499v1.204h1.611v1.037
		h-1.611v6.569h-1.274v-6.569h-1.037v-0.967l1.037-0.07v-1.219c0-1.54,0.7-2.507,2.213-2.507c0.462,0,0.911,0.098,1.275,0.252
		L188.557,106.12z"/>
	<path fill="#4D4D4D" d="M189.115,112.438c0-2.535,1.667-4.006,3.53-4.006c1.863,0,3.53,1.471,3.53,4.006
		c0,2.521-1.667,3.978-3.53,3.978C190.782,116.415,189.115,114.959,189.115,112.438z M194.858,112.438
		c0-1.751-0.896-2.941-2.213-2.941c-1.316,0-2.199,1.19-2.199,2.941s0.883,2.913,2.199,2.913
		C193.961,115.351,194.858,114.188,194.858,112.438z"/>
	<path fill="#4D4D4D" d="M197.668,113.054c0-4.188,3.04-6.934,6.528-6.934c3.152,0,5.141,2.101,5.141,5.183
		c0,2.731-1.709,4.16-3.124,4.16c-0.854,0-1.513-0.393-1.611-1.19h-0.042c-0.504,0.603-1.219,1.078-1.905,1.078
		c-1.064,0-1.877-0.798-1.877-2.227c0-1.653,1.177-3.628,3.012-3.628c0.532,0,0.966,0.252,1.247,0.771h0.028l0.182-0.645h0.841
		l-0.617,3.123c-0.294,1.261,0,1.835,0.854,1.835c0.995,0,2.115-1.19,2.115-3.222c0-2.535-1.499-4.384-4.342-4.384
		c-2.788,0-5.477,2.381-5.477,6.037c0,3.054,1.989,4.79,4.651,4.79c0.952,0,1.849-0.294,2.549-0.7l0.336,0.757
		c-0.911,0.546-1.891,0.798-2.97,0.798C200.12,118.656,197.668,116.695,197.668,113.054z M204.35,113.544l0.448-2.493
		c-0.294-0.477-0.588-0.658-1.008-0.658c-1.233,0-1.989,1.484-1.989,2.661c0,1.009,0.477,1.415,1.107,1.415
		C203.342,114.469,203.818,114.188,204.35,113.544z"/>
	<path fill="#4D4D4D" d="M211.417,105.083h1.261v7.564h0.028l3.264-4.021h1.415l-2.549,3.054l2.886,4.553h-1.387l-2.228-3.67
		l-1.429,1.667v2.003h-1.261V105.083z"/>
	<path fill="#4D4D4D" d="M219.145,108.627h1.051l0.111,1.093h0.043c0.729-0.714,1.512-1.288,2.549-1.288
		c1.598,0,2.326,1.036,2.326,2.983v4.818h-1.275v-4.65c0-1.429-0.434-2.031-1.443-2.031c-0.783,0-1.316,0.393-2.086,1.163v5.519
		h-1.275V108.627z"/>
	<path fill="#4D4D4D" d="M227.922,113.88v-4.216h-1.135v-0.967l1.191-0.07l0.154-2.129h1.064v2.129h2.059v1.037h-2.059v4.244
		c0,0.938,0.295,1.471,1.176,1.471c0.268,0,0.617-0.098,0.869-0.196l0.252,0.953c-0.434,0.14-0.938,0.279-1.4,0.279
		C228.469,116.415,227.922,115.407,227.922,113.88z"/>
	<path fill="#4D4D4D" d="M232.332,111.821h3.586v0.98h-3.586V111.821z"/>
	<path fill="#4D4D4D" d="M238.059,113.88v-4.216h-1.135v-0.967l1.191-0.07l0.152-2.129h1.064v2.129h2.061v1.037h-2.061v4.244
		c0,0.938,0.295,1.471,1.178,1.471c0.266,0,0.615-0.098,0.869-0.196l0.252,0.953c-0.436,0.14-0.939,0.279-1.402,0.279
		C238.605,116.415,238.059,115.407,238.059,113.88z"/>
	<path fill="#4D4D4D" d="M242.637,114.259c0-1.653,1.441-2.479,4.678-2.844c0-0.98-0.322-1.919-1.568-1.919
		c-0.883,0-1.682,0.406-2.283,0.813l-0.504-0.883c0.699-0.448,1.779-0.994,2.996-0.994c1.85,0,2.635,1.246,2.635,3.123v4.679h-1.051
		l-0.111-0.91h-0.043c-0.729,0.602-1.582,1.092-2.521,1.092C243.588,116.415,242.637,115.631,242.637,114.259z M247.314,114.385
		v-2.13c-2.563,0.309-3.432,0.938-3.432,1.919c0,0.869,0.588,1.219,1.346,1.219C245.971,115.393,246.572,115.043,247.314,114.385z"
		/>
	<path fill="#4D4D4D" d="M250.77,106.232c0-0.519,0.379-0.827,0.883-0.827s0.883,0.309,0.883,0.827c0,0.476-0.379,0.826-0.883,0.826
		S250.77,106.708,250.77,106.232z M251.008,108.627h1.275v7.606h-1.275V108.627z"/>
	<path fill="#4D4D4D" d="M253.947,108.627h1.303l1.135,4.398c0.154,0.729,0.309,1.415,0.449,2.13h0.07
		c0.168-0.715,0.322-1.415,0.518-2.13l1.176-4.398h1.248l1.189,4.398c0.184,0.729,0.352,1.415,0.533,2.13h0.057
		c0.168-0.715,0.307-1.401,0.475-2.13l1.121-4.398h1.205l-2.045,7.606h-1.541l-1.107-4.104c-0.195-0.714-0.336-1.414-0.518-2.185
		h-0.07c-0.168,0.771-0.322,1.484-0.518,2.213l-1.064,4.076h-1.5L253.947,108.627z"/>
	<path fill="#4D4D4D" d="M265.609,114.259c0-1.653,1.443-2.479,4.68-2.844c0-0.98-0.322-1.919-1.57-1.919
		c-0.881,0-1.68,0.406-2.283,0.813l-0.504-0.883c0.701-0.448,1.779-0.994,2.998-0.994c1.85,0,2.633,1.246,2.633,3.123v4.679h-1.051
		l-0.111-0.91h-0.043c-0.727,0.602-1.582,1.092-2.52,1.092C266.563,116.415,265.609,115.631,265.609,114.259z M270.289,114.385
		v-2.13c-2.564,0.309-3.432,0.938-3.432,1.919c0,0.869,0.588,1.219,1.344,1.219C268.943,115.393,269.547,115.043,270.289,114.385z"
		/>
	<path fill="#4D4D4D" d="M273.982,108.627h1.049l0.113,1.093h0.041c0.729-0.714,1.514-1.288,2.551-1.288
		c1.596,0,2.324,1.036,2.324,2.983v4.818h-1.273v-4.65c0-1.429-0.436-2.031-1.443-2.031c-0.785,0-1.316,0.393-2.088,1.163v5.519
		h-1.273V108.627z"/>
	<path fill="#4D4D4D" d="M282.27,115.449c0-0.574,0.42-0.995,0.926-0.995c0.504,0,0.924,0.421,0.924,0.995s-0.42,0.966-0.924,0.966
		C282.689,116.415,282.27,116.023,282.27,115.449z"/>
	<path fill="#4D4D4D" d="M285.854,112.438c0-2.535,1.723-4.006,3.67-4.006c0.994,0,1.682,0.42,2.227,0.896l-0.658,0.854
		c-0.447-0.406-0.91-0.687-1.525-0.687c-1.373,0-2.383,1.19-2.383,2.941s0.953,2.913,2.354,2.913c0.701,0,1.316-0.322,1.793-0.756
		l0.547,0.854c-0.672,0.616-1.541,0.966-2.451,0.966C287.408,116.415,285.854,114.959,285.854,112.438z"/>
	<path fill="#4D4D4D" d="M292.98,112.438c0-2.535,1.666-4.006,3.529-4.006s3.529,1.471,3.529,4.006c0,2.521-1.666,3.978-3.529,3.978
		S292.98,114.959,292.98,112.438z M298.723,112.438c0-1.751-0.896-2.941-2.213-2.941s-2.199,1.19-2.199,2.941
		s0.883,2.913,2.199,2.913S298.723,114.188,298.723,112.438z"/>
	<path fill="#4D4D4D" d="M302.037,108.627h1.051l0.111,1.106h0.043c0.658-0.728,1.457-1.302,2.367-1.302
		c1.162,0,1.793,0.56,2.102,1.456c0.783-0.854,1.582-1.456,2.506-1.456c1.57,0,2.313,1.036,2.313,2.983v4.818h-1.275v-4.65
		c0-1.429-0.447-2.031-1.414-2.031c-0.588,0-1.205,0.378-1.92,1.163v5.519h-1.273v-4.65c0-1.429-0.449-2.031-1.416-2.031
		c-0.574,0-1.219,0.378-1.918,1.163v5.519h-1.275V108.627z"/>
	<path fill="#4D4D4D" d="M40.527,137.106c0-3.319,1.947-5.337,4.552-5.337c1.247,0,2.228,0.616,2.816,1.274l-0.701,0.841
		c-0.532-0.574-1.219-0.98-2.101-0.98c-1.947,0-3.236,1.597-3.236,4.16c0,2.592,1.233,4.217,3.194,4.217
		c0.98,0,1.723-0.435,2.381-1.149l0.714,0.813c-0.813,0.938-1.821,1.471-3.152,1.471C42.446,142.415,40.527,140.44,40.527,137.106z"
		/>
	<path fill="#4D4D4D" d="M49.36,138.438c0-2.535,1.667-4.006,3.53-4.006c1.863,0,3.53,1.471,3.53,4.006
		c0,2.521-1.667,3.978-3.53,3.978C51.027,142.415,49.36,140.959,49.36,138.438z M55.104,138.438c0-1.751-0.896-2.941-2.213-2.941
		c-1.316,0-2.199,1.19-2.199,2.941s0.883,2.913,2.199,2.913C54.207,141.351,55.104,140.188,55.104,138.438z"/>
	<path fill="#4D4D4D" d="M58.418,134.627h1.051l0.112,0.869h0.042c0.687-0.561,1.541-1.064,2.423-1.064
		c1.961,0,3.026,1.54,3.026,3.88c0,2.605-1.555,4.104-3.306,4.104c-0.687,0-1.415-0.321-2.102-0.882l0.028,1.33v2.578h-1.275
		V134.627z M63.742,138.325c0-1.681-0.561-2.815-2.003-2.815c-0.644,0-1.303,0.364-2.045,1.051v3.992
		c0.686,0.588,1.359,0.798,1.863,0.798C62.817,141.351,63.742,140.216,63.742,138.325z"/>
	<path fill="#4D4D4D" d="M66.328,145.357l0.252-1.022c0.154,0.056,0.378,0.126,0.574,0.126c0.869,0,1.415-0.701,1.723-1.64
		l0.168-0.574l-3.054-7.62h1.331l1.555,4.23c0.224,0.658,0.49,1.443,0.728,2.129h0.07c0.21-0.686,0.434-1.456,0.644-2.129
		l1.359-4.23h1.247l-2.872,8.236c-0.532,1.499-1.316,2.647-2.83,2.647C66.861,145.511,66.566,145.455,66.328,145.357z"/>
	<path fill="#4D4D4D" d="M74.393,134.627h1.051l0.112,1.387h0.042c0.532-0.966,1.303-1.582,2.157-1.582
		c0.336,0,0.574,0.042,0.813,0.168l-0.238,1.12c-0.252-0.098-0.434-0.126-0.742-0.126c-0.63,0-1.415,0.448-1.919,1.751v4.889h-1.275
		V134.627z"/>
	<path fill="#4D4D4D" d="M79.586,132.232c0-0.519,0.378-0.827,0.882-0.827s0.882,0.309,0.882,0.827c0,0.476-0.378,0.826-0.882,0.826
		S79.586,132.708,79.586,132.232z M79.824,134.627h1.275v7.606h-1.275V134.627z"/>
	<path fill="#4D4D4D" d="M83.086,143.69c0-0.645,0.42-1.261,1.135-1.724v-0.056c-0.406-0.238-0.7-0.645-0.7-1.246
		c0-0.631,0.462-1.135,0.854-1.415v-0.057c-0.504-0.406-0.995-1.134-0.995-2.045c0-1.667,1.316-2.717,2.857-2.717
		c0.42,0,0.798,0.098,1.064,0.195h2.647v0.98h-1.555c0.364,0.351,0.616,0.911,0.616,1.569c0,1.625-1.232,2.647-2.773,2.647
		c-0.378,0-0.798-0.099-1.135-0.267c-0.28,0.238-0.49,0.49-0.49,0.911c0,0.49,0.308,0.826,1.331,0.826h1.484
		c1.765,0,2.647,0.561,2.647,1.807c0,1.415-1.484,2.634-3.838,2.634C84.375,145.735,83.086,145.007,83.086,143.69z M88.843,143.298
		c0-0.7-0.546-0.938-1.555-0.938h-1.317c-0.28,0-0.645-0.042-0.98-0.126c-0.546,0.393-0.785,0.841-0.785,1.289
		c0,0.813,0.827,1.345,2.213,1.345C87.876,144.867,88.843,144.097,88.843,143.298z M87.849,137.148c0-1.106-0.714-1.778-1.611-1.778
		s-1.625,0.658-1.625,1.778c0,1.106,0.743,1.808,1.625,1.808C87.106,138.956,87.849,138.255,87.849,137.148z"/>
	<path fill="#4D4D4D" d="M91.556,131.083h1.275v3.054l-0.042,1.569c0.7-0.7,1.485-1.274,2.521-1.274
		c1.597,0,2.326,1.036,2.326,2.983v4.818h-1.275v-4.65c0-1.429-0.434-2.031-1.443-2.031c-0.784,0-1.316,0.393-2.087,1.163v5.519
		h-1.275V131.083z"/>
	<path fill="#4D4D4D" d="M100.278,139.88v-4.216h-1.134v-0.967l1.19-0.07l0.154-2.129h1.064v2.129h2.059v1.037h-2.059v4.244
		c0,0.938,0.294,1.471,1.177,1.471c0.266,0,0.616-0.098,0.868-0.196l0.252,0.953c-0.435,0.14-0.938,0.279-1.401,0.279
		C100.824,142.415,100.278,141.407,100.278,139.88z"/>
	<path fill="#4D4D4D" d="M107.95,137.177c0-3.18,2.339-5.169,5.057-5.169s5.057,1.989,5.057,5.169c0,3.193-2.339,5.225-5.057,5.225
		S107.95,140.37,107.95,137.177z M117.334,137.177c0-2.731-1.975-4.524-4.328-4.524c-2.367,0-4.328,1.793-4.328,4.524
		s1.961,4.58,4.328,4.58C115.36,141.757,117.334,139.908,117.334,137.177z M110.289,137.177c0-1.821,1.373-2.956,2.885-2.956
		c0.883,0,1.457,0.379,1.947,0.883l-0.532,0.616c-0.435-0.406-0.813-0.645-1.373-0.645c-1.148,0-1.905,0.869-1.905,2.102
		c0,1.373,0.729,2.241,1.863,2.241c0.672,0,1.135-0.309,1.597-0.7l0.462,0.672c-0.56,0.505-1.176,0.883-2.115,0.883
		C111.549,140.272,110.289,139.109,110.289,137.177z"/>
	<path fill="#4D4D4D" d="M122.579,141.477c3.222-2.815,4.707-4.86,4.707-6.625c0-1.177-0.616-2.031-1.891-2.031
		c-0.84,0-1.569,0.519-2.129,1.19l-0.743-0.729c0.841-0.91,1.723-1.513,3.026-1.513c1.835,0,2.983,1.205,2.983,3.04
		c0,2.045-1.611,4.132-4.02,6.415c0.532-0.042,1.163-0.098,1.681-0.098h2.843v1.106h-6.458V141.477z"/>
	<path fill="#4D4D4D" d="M130.419,137.064c0-3.571,1.247-5.295,3.208-5.295c1.947,0,3.194,1.737,3.194,5.295
		c0,3.572-1.247,5.351-3.194,5.351C131.666,142.415,130.419,140.637,130.419,137.064z M135.574,137.064
		c0-2.997-0.785-4.258-1.947-4.258c-1.177,0-1.961,1.261-1.961,4.258c0,3.025,0.784,4.328,1.961,4.328
		C134.79,141.393,135.574,140.09,135.574,137.064z"/>
	<path fill="#4D4D4D" d="M138.736,141.169h2.283v-7.662h-1.821v-0.813c0.911-0.168,1.569-0.406,2.129-0.729h0.98v9.203h2.059v1.064
		h-5.631V141.169z"/>
	<path fill="#4D4D4D" d="M151.548,133.619c-0.406-0.49-1.022-0.785-1.653-0.785c-1.401,0-2.591,1.079-2.647,4.272
		c0.63-0.771,1.527-1.246,2.339-1.246c1.737,0,2.843,1.078,2.843,3.222c0,1.988-1.345,3.333-2.941,3.333
		c-1.975,0-3.432-1.694-3.432-5.084c0-4.021,1.807-5.562,3.796-5.562c1.064,0,1.835,0.448,2.395,1.051L151.548,133.619z
		 M151.226,139.082c0-1.387-0.602-2.27-1.849-2.27c-0.644,0-1.429,0.364-2.101,1.316c0.154,2.13,0.925,3.292,2.213,3.292
		C150.47,141.421,151.226,140.482,151.226,139.082z"/>
	<path fill="#4D4D4D" d="M165.382,132.105c1.358,1.191,2.969,2.9,3.698,4.063l-0.882,0.631c-0.21-0.364-0.504-0.771-0.854-1.205
		c-7.999,0.448-8.811,0.477-9.357,0.673c-0.042-0.225-0.224-0.743-0.336-1.023c0.308-0.056,0.672-0.363,1.135-0.826
		c0.504-0.448,2.129-2.213,3.222-3.95l1.022,0.463c-1.106,1.513-2.353,2.955-3.586,4.118l7.144-0.351
		c-0.645-0.729-1.359-1.457-2.031-2.059L165.382,132.105z M158.728,137.442h8.909v5.827h-1.092v-0.728h-6.766v0.756h-1.051V137.442z
		 M159.779,138.438v3.096h6.766v-3.096H159.779z"/>
	<path fill="#4D4D4D" d="M172.742,136.574c-0.406-0.448-1.289-1.078-2.003-1.471l0.588-0.7c0.729,0.35,1.611,0.952,2.045,1.387
		L172.742,136.574z M171.005,142.598c0.504-1.079,1.232-2.886,1.751-4.454l0.812,0.546c-0.462,1.457-1.079,3.166-1.625,4.44
		L171.005,142.598z M172.98,132.946c-0.378-0.462-1.232-1.12-1.933-1.555l0.602-0.687c0.701,0.393,1.569,1.022,1.961,1.485
		L172.98,132.946z M174.535,135.678c-0.14,0.687-0.35,1.443-0.616,1.934c-0.112-0.099-0.378-0.267-0.519-0.337
		c0.266-0.504,0.42-1.12,0.532-1.736L174.535,135.678z M176.412,135.117c-0.042-0.126-0.098-0.28-0.168-0.434
		c-1.905,0.266-2.228,0.336-2.423,0.434c-0.028-0.126-0.154-0.406-0.238-0.546c0.21-0.028,0.406-0.21,0.645-0.49
		c0.154-0.141,0.504-0.546,0.868-1.051c-0.91,0.084-1.148,0.141-1.289,0.196c-0.042-0.126-0.154-0.406-0.238-0.532
		c0.154-0.028,0.28-0.154,0.435-0.351c0.126-0.196,0.644-0.994,0.854-1.736l0.658,0.238c-0.238,0.588-0.603,1.176-0.938,1.639
		l0.924-0.057c0.14-0.21,0.266-0.42,0.378-0.63l0.63,0.266c-0.49,0.799-1.093,1.598-1.723,2.241l1.233-0.153
		c-0.084-0.168-0.182-0.309-0.266-0.463l0.532-0.182c0.28,0.434,0.56,1.022,0.672,1.387L176.412,135.117z M182.912,140.511
		c0,0-0.014,0.294-0.056,0.42c-0.266,1.205-0.546,1.821-0.924,2.102c-0.294,0.21-0.588,0.266-1.051,0.266
		c-0.42,0.014-1.261,0-2.143-0.056c-0.028-0.238-0.14-0.574-0.294-0.799c0.896,0.084,1.807,0.099,2.157,0.099
		c0.309,0,0.448-0.015,0.588-0.112c0.238-0.154,0.42-0.519,0.603-1.205h-7.368c0.224-0.588,0.435-1.4,0.603-2.087h6.317v-0.729
		h-6.822v-0.672h7.788v2.073h-6.485c-0.056,0.237-0.126,0.476-0.196,0.7H182.912z M175.137,137.373
		c-0.014-0.448-0.14-1.177-0.308-1.724l0.546-0.14c0.182,0.546,0.322,1.232,0.336,1.667L175.137,137.373z M176.384,135.286
		c0.224,0.49,0.434,1.12,0.504,1.498l-0.532,0.238c-0.056-0.406-0.266-1.051-0.49-1.568L176.384,135.286z M180.11,132.554h-3.362
		v-0.644h1.485c-0.098-0.337-0.35-0.785-0.546-1.106l0.714-0.183c0.224,0.322,0.476,0.813,0.602,1.106l-0.616,0.183h1.723V132.554z
		 M177.126,135.174h2.633v2.059h-2.633V135.174z M179.746,133.633h-2.578v-0.589h2.578V133.633z M177.168,134.081h2.578v0.574
		h-2.578V134.081z M177.813,136.658h1.232v-0.925h-1.232V136.658z M181.021,135.622c-0.126,0.687-0.35,1.414-0.602,1.933
		c-0.112-0.098-0.393-0.28-0.546-0.364c0.28-0.49,0.434-1.106,0.546-1.709L181.021,135.622z M182.954,135.159
		c-0.042-0.153-0.112-0.322-0.196-0.518c-1.919,0.266-2.269,0.35-2.451,0.42c-0.042-0.098-0.154-0.393-0.238-0.546
		c0.21-0.028,0.406-0.196,0.659-0.463c0.154-0.154,0.49-0.56,0.868-1.064c-0.924,0.099-1.163,0.141-1.303,0.21
		c-0.042-0.126-0.154-0.406-0.238-0.546c0.168-0.014,0.266-0.141,0.42-0.351c0.154-0.196,0.645-0.98,0.869-1.723l0.658,0.238
		c-0.238,0.574-0.588,1.162-0.938,1.625l0.925-0.057c0.14-0.21,0.266-0.42,0.378-0.63l0.645,0.28
		c-0.49,0.784-1.107,1.568-1.723,2.227l1.219-0.153c-0.084-0.169-0.168-0.309-0.252-0.448l0.504-0.196
		c0.309,0.462,0.617,1.078,0.729,1.471L182.954,135.159z M181.637,137.484c-0.014-0.476-0.154-1.26-0.35-1.862l0.561-0.141
		c0.196,0.603,0.336,1.359,0.35,1.821L181.637,137.484z M182.855,135.243c0.294,0.575,0.532,1.317,0.603,1.766l-0.532,0.252
		c-0.07-0.49-0.308-1.247-0.575-1.835L182.855,135.243z"/>
	<path fill="#4D4D4D" d="M188.591,137.177c-0.336,1.289-0.827,2.676-1.387,3.712c0.252,0.168,0.546,0.393,0.994,0.658
		c0.967,0.603,2.213,0.7,3.866,0.7c1.779,0,4.034-0.126,5.575-0.294c-0.112,0.28-0.294,0.771-0.308,1.079
		c-1.037,0.069-3.656,0.153-5.295,0.153c-1.821,0-3.026-0.153-4.063-0.771c-0.56-0.336-1.064-0.812-1.387-0.812
		c-0.308,0-0.798,0.868-1.205,1.765l-0.714-0.953c0.574-0.812,1.135-1.456,1.625-1.666c0.448-0.785,0.84-1.85,1.106-2.83h-1.947
		c0.378-0.826,0.84-2.003,1.232-3.082h-1.849v-0.938h3.138c-0.35,0.995-0.813,2.157-1.205,3.11h1.177l0.168-0.042L188.591,137.177z
		 M186.476,133.24c-0.154-0.588-0.477-1.526-0.701-2.241l0.938-0.266c0.252,0.7,0.575,1.625,0.757,2.199L186.476,133.24z
		 M191.07,135.594c-0.112,1.751-0.448,3.796-1.513,5.267c-0.182-0.182-0.616-0.518-0.869-0.63c1.233-1.723,1.373-4.133,1.373-5.897
		v-2.983c2.143-0.126,4.72-0.393,6.093-0.826l0.854,0.771c-1.541,0.476-3.838,0.742-5.911,0.882v2.157v0.294h6.303v0.967h-2.507
		v5.799h-1.051v-5.799H191.07z"/>
	<path fill="#4D4D4D" d="M210.071,138.144c-0.519,1.092-1.233,2.087-2.087,2.969c0.588,0.771,1.261,1.205,1.975,1.205
		c0.519,0,0.701-0.462,0.813-2.045c0.224,0.21,0.561,0.42,0.827,0.504c-0.21,1.976-0.588,2.521-1.681,2.521
		c-1.05,0-1.933-0.546-2.675-1.484c-0.729,0.616-1.541,1.148-2.409,1.568c-0.168-0.238-0.448-0.561-0.687-0.784l0.224-0.098h-3.894
		v0.448h-0.827v-4.791h5.141v4.132c0.686-0.364,1.331-0.798,1.905-1.303c-0.546-0.966-0.995-2.171-1.345-3.558h-6.387v-0.868h6.191
		c-0.364-1.835-0.56-3.908-0.588-6.037h1.023c0,2.199,0.224,4.271,0.588,6.037h2.549c-0.266-0.196-0.603-0.393-0.883-0.561
		l0.519-0.351c-1.401,0.154-1.695,0.211-1.863,0.295c-0.042-0.183-0.168-0.589-0.266-0.813c0.28-0.042,0.603-0.252,1.009-0.574
		c0.21-0.154,0.672-0.547,1.205-1.037c-1.555,0.154-1.835,0.225-2.017,0.294c-0.056-0.182-0.196-0.616-0.294-0.826
		c0.196-0.028,0.406-0.196,0.616-0.42c0.224-0.225,1.008-1.106,1.471-2.003l0.854,0.35c-0.49,0.729-1.079,1.443-1.639,1.989
		l1.751-0.126c0.336-0.322,0.672-0.7,0.953-1.064l0.756,0.42c-0.98,1.064-2.059,2.087-3.124,2.872l2.381-0.225
		c-0.168-0.308-0.336-0.63-0.504-0.896l0.658-0.252c0.42,0.672,0.925,1.555,1.107,2.101l-0.687,0.322
		c-0.07-0.195-0.14-0.406-0.252-0.644l-1.877,0.21c0.504,0.238,1.065,0.616,1.345,0.882l-0.056,0.057h1.555v0.868h-5.057
		c0.294,1.106,0.658,2.073,1.064,2.857c0.714-0.756,1.289-1.597,1.709-2.493L210.071,138.144z M203.796,136.252
		c-0.07-0.182-0.154-0.406-0.252-0.63c-3.208,0.336-3.628,0.406-3.88,0.532c-0.042-0.196-0.168-0.603-0.266-0.826
		c0.28-0.042,0.616-0.253,0.995-0.589c0.224-0.168,0.686-0.561,1.205-1.078c-1.359,0.126-1.639,0.182-1.807,0.266
		c-0.028-0.182-0.182-0.616-0.28-0.84c0.196-0.015,0.393-0.183,0.588-0.421c0.224-0.21,0.98-1.106,1.429-2.003l0.841,0.351
		c-0.462,0.729-1.023,1.442-1.569,2.003l1.526-0.099c0.322-0.336,0.63-0.714,0.911-1.064l0.756,0.406
		c-0.966,1.093-2.017,2.144-3.082,2.928l2.311-0.196c-0.168-0.322-0.336-0.645-0.518-0.924l0.658-0.238
		c0.435,0.672,0.925,1.568,1.107,2.101L203.796,136.252z M200.476,138.872v1.106h1.373v-1.106H200.476z M200.476,141.771h1.373
		v-1.106h-1.373V141.771z M203.964,138.872h-1.387v1.106h1.387V138.872z M203.964,141.771v-1.106h-1.387v1.106H203.964z"/>
	<path fill="#4D4D4D" d="M217.95,135.622c0,0,0,0.322-0.014,0.476c-0.112,4.581-0.224,6.107-0.561,6.584
		c-0.21,0.294-0.462,0.406-0.798,0.435c-0.308,0.042-0.798,0.042-1.303,0.014c-0.014-0.28-0.112-0.672-0.266-0.925
		c0.504,0.042,0.938,0.057,1.148,0.057c0.168,0,0.28-0.028,0.393-0.196c0.21-0.309,0.336-1.667,0.434-5.491H215.4
		c-0.056,2.171-0.406,4.595-1.989,6.695c-0.154-0.195-0.504-0.448-0.743-0.588c1.597-2.157,1.779-4.706,1.779-6.737v-2.13h-1.499
		v-0.98h5.407v0.98H215.4v1.808H217.95z M215.625,132.736c-0.14-0.519-0.476-1.316-0.756-1.919l0.882-0.309
		c0.322,0.603,0.659,1.373,0.799,1.892L215.625,132.736z M220.135,133.324c-0.393,0.799-0.869,1.513-1.359,2.073
		c-0.182-0.154-0.588-0.476-0.826-0.63c0.995-1.022,1.751-2.605,2.158-4.259l1.008,0.183c-0.154,0.588-0.35,1.148-0.561,1.681h4.834
		v0.952H220.135z M225.402,136.799c-0.645,0.63-1.484,1.316-2.186,1.807c0.531,1.597,1.303,2.899,2.367,3.642
		c-0.238,0.183-0.561,0.561-0.715,0.841c-1.863-1.4-2.801-4.188-3.277-7.508c-0.42,0.111-0.854,0.21-1.275,0.308v5.716l2.102-0.925
		c0.014,0.28,0.084,0.7,0.154,0.925c-2.563,1.19-2.955,1.372-3.193,1.61c-0.098-0.224-0.379-0.616-0.533-0.784
		c0.197-0.168,0.476-0.505,0.476-1.148v-6.038c1.793-0.378,3.824-0.952,4.959-1.513l0.84,0.729c-0.756,0.322-1.68,0.631-2.646,0.896
		c0.125,0.813,0.266,1.611,0.477,2.367c0.602-0.49,1.26-1.078,1.693-1.568L225.402,136.799z"/>
	<path fill="#4D4D4D" d="M231.473,133.856c-0.434,0.715-0.967,1.43-1.541,2.115v7.368h-1.035v-6.219
		c-0.533,0.546-1.064,1.05-1.584,1.456c-0.154-0.21-0.518-0.658-0.729-0.868c1.443-1.022,2.957-2.634,3.922-4.216L231.473,133.856z
		 M230.928,130.901c-0.912,1.232-2.34,2.592-3.586,3.474c-0.154-0.224-0.436-0.63-0.617-0.826c1.162-0.784,2.508-2.045,3.207-3.04
		L230.928,130.901z M239.514,136.183h-2.115v5.784c0,0.645-0.154,0.967-0.617,1.135c-0.475,0.154-1.26,0.154-2.633,0.154
		c-0.041-0.28-0.182-0.714-0.336-1.009c0.994,0.028,1.918,0.028,2.186,0.015c0.266-0.015,0.35-0.07,0.35-0.309v-5.771h-4.678v-0.995
		h7.844V136.183z M239.107,132.344h-6.836v-0.98h6.836V132.344z"/>
	<path fill="#4D4D4D" d="M245.486,139.025c-0.293-0.406-0.924-1.148-1.455-1.736v6.009h-1.023v-5.701
		c-0.631,0.631-1.289,1.19-1.934,1.611c-0.084-0.294-0.322-0.813-0.477-1.009c1.541-0.91,3.166-2.592,4.063-4.328h-3.684v-0.953
		h4.23l0.195-0.042l0.561,0.406c-0.42,1.037-1.035,2.06-1.75,2.956c0.561,0.532,1.625,1.625,1.932,1.933L245.486,139.025z
		 M243.764,132.834c-0.252-0.518-0.813-1.316-1.316-1.862l0.785-0.463c0.531,0.547,1.119,1.303,1.357,1.808L243.764,132.834z
		 M253.57,141.743v1.022h-8v-1.022h3.686v-5.855h-3.025v-1.008h3.025v-4.385h1.035v4.385h2.984v1.008h-2.984v5.855H253.57z"/>
	<path fill="#4D4D4D" d="M258.715,131.966h1.303v5.155h0.043l4.287-5.155h1.455l-3.207,3.908l3.713,6.359h-1.457l-3.068-5.351
		l-1.766,2.101v3.25h-1.303V131.966z"/>
	<path fill="#4D4D4D" d="M267.76,131.966h1.344l3.74,6.472l1.094,2.115h0.07c-0.07-1.037-0.168-2.186-0.168-3.25v-5.337h1.232
		v10.268h-1.332l-3.74-6.485l-1.105-2.115h-0.057c0.057,1.036,0.154,2.129,0.154,3.208v5.393h-1.232V131.966z"/>
	<path fill="#4D4D4D" d="M280.01,133.059H276.9v-1.093h7.521v1.093h-3.109v9.175h-1.303V133.059z"/>
	<path fill="#4D4D4D" d="M291.533,133.059h-3.109v-1.093h7.521v1.093h-3.109v9.175h-1.303V133.059z"/>
	<path fill="#4D4D4D" d="M297.188,140.259c0-1.653,1.441-2.479,4.678-2.844c0-0.98-0.322-1.919-1.568-1.919
		c-0.883,0-1.682,0.406-2.283,0.813l-0.504-0.883c0.699-0.448,1.779-0.994,2.996-0.994c1.85,0,2.635,1.246,2.635,3.123v4.679h-1.051
		l-0.111-0.91h-0.043c-0.729,0.602-1.582,1.092-2.521,1.092C298.139,142.415,297.188,141.631,297.188,140.259z M301.865,140.385
		v-2.13c-2.563,0.309-3.432,0.938-3.432,1.919c0,0.869,0.588,1.219,1.346,1.219C300.521,141.393,301.123,141.043,301.865,140.385z"
		/>
	<path fill="#4D4D4D" d="M305.32,132.232c0-0.519,0.379-0.827,0.883-0.827s0.883,0.309,0.883,0.827c0,0.476-0.379,0.826-0.883,0.826
		S305.32,132.708,305.32,132.232z M305.559,134.627h1.275v7.606h-1.275V134.627z"/>
	<path fill="#4D4D4D" d="M308.498,134.627h1.303l1.135,4.398c0.154,0.729,0.309,1.415,0.449,2.13h0.07
		c0.168-0.715,0.322-1.415,0.518-2.13l1.176-4.398h1.248l1.189,4.398c0.184,0.729,0.352,1.415,0.533,2.13h0.057
		c0.168-0.715,0.307-1.401,0.475-2.13l1.121-4.398h1.205l-2.045,7.606h-1.541l-1.107-4.104c-0.195-0.714-0.336-1.414-0.518-2.185
		h-0.07c-0.168,0.771-0.322,1.484-0.518,2.213l-1.064,4.076h-1.5L308.498,134.627z"/>
	<path fill="#4D4D4D" d="M320.16,140.259c0-1.653,1.443-2.479,4.68-2.844c0-0.98-0.322-1.919-1.57-1.919
		c-0.881,0-1.68,0.406-2.283,0.813l-0.504-0.883c0.701-0.448,1.779-0.994,2.998-0.994c1.85,0,2.633,1.246,2.633,3.123v4.679h-1.051
		l-0.111-0.91h-0.043c-0.727,0.602-1.582,1.092-2.52,1.092C321.113,142.415,320.16,141.631,320.16,140.259z M324.84,140.385v-2.13
		c-2.564,0.309-3.432,0.938-3.432,1.919c0,0.869,0.588,1.219,1.344,1.219C323.494,141.393,324.098,141.043,324.84,140.385z"/>
	<path fill="#4D4D4D" d="M328.533,134.627h1.049l0.113,1.093h0.041c0.729-0.714,1.514-1.288,2.551-1.288
		c1.596,0,2.324,1.036,2.324,2.983v4.818h-1.273v-4.65c0-1.429-0.436-2.031-1.443-2.031c-0.785,0-1.316,0.393-2.088,1.163v5.519
		h-1.273V134.627z"/>
	<path fill="#4D4D4D" d="M339.746,137.106c0-3.319,1.947-5.337,4.553-5.337c1.246,0,2.227,0.616,2.816,1.274l-0.701,0.841
		c-0.531-0.574-1.219-0.98-2.102-0.98c-1.947,0-3.234,1.597-3.234,4.16c0,2.592,1.232,4.217,3.193,4.217
		c0.98,0,1.723-0.435,2.381-1.149l0.715,0.813c-0.813,0.938-1.822,1.471-3.152,1.471
		C341.666,142.415,339.746,140.44,339.746,137.106z"/>
	<path fill="#4D4D4D" d="M348.58,138.438c0-2.535,1.666-4.006,3.529-4.006s3.531,1.471,3.531,4.006c0,2.521-1.668,3.978-3.531,3.978
		S348.58,140.959,348.58,138.438z M354.322,138.438c0-1.751-0.896-2.941-2.213-2.941s-2.199,1.19-2.199,2.941
		s0.883,2.913,2.199,2.913S354.322,140.188,354.322,138.438z"/>
	<path fill="#4D4D4D" d="M357.371,141.449c0-0.574,0.42-0.995,0.926-0.995c0.504,0,0.924,0.421,0.924,0.995s-0.42,0.966-0.924,0.966
		C357.791,142.415,357.371,142.023,357.371,141.449z"/>
	<path fill="#4D4D4D" d="M360.984,144.139c0.869-0.379,1.387-1.051,1.4-1.905c-0.057,0.014-0.098,0.014-0.154,0.014
		c-0.49,0-0.938-0.308-0.938-0.896c0-0.546,0.447-0.896,0.967-0.896c0.672,0,1.078,0.574,1.078,1.513
		c0,1.345-0.785,2.396-2.045,2.928L360.984,144.139z"/>
	<path fill="#4D4D4D" d="M368.67,131.966h1.303v9.161h4.482v1.106h-5.785V131.966z"/>
	<path fill="#4D4D4D" d="M378.4,133.059h-3.109v-1.093h7.521v1.093h-3.109v9.175H378.4V133.059z"/>
	<path fill="#4D4D4D" d="M384.645,131.966h2.578c3.15,0,4.846,1.835,4.846,5.099c0,3.25-1.695,5.169-4.791,5.169h-2.633V131.966z
		 M387.109,141.169c2.424,0,3.615-1.513,3.615-4.104c0-2.605-1.191-4.048-3.615-4.048h-1.162v8.152H387.109z"/>
	<path fill="#4D4D4D" d="M393.883,141.449c0-0.574,0.42-0.995,0.926-0.995c0.504,0,0.924,0.421,0.924,0.995s-0.42,0.966-0.924,0.966
		C394.303,142.415,393.883,142.023,393.883,141.449z"/>
</g>
</svg>
