<?xml version="1.0" encoding="utf-8"?>
<!-- Generator: Adobe Illustrator 16.0.0, SVG Export Plug-In . SVG Version: 6.00 Build 0)  -->
<!DOCTYPE svg PUBLIC "-//W3C//DTD SVG 1.1//EN" "http://www.w3.org/Graphics/SVG/1.1/DTD/svg11.dtd">
<svg version="1.1" id="Layer_1" xmlns="http://www.w3.org/2000/svg" xmlns:xlink="http://www.w3.org/1999/xlink" x="0px" y="0px"
	 width="24px" height="24px" viewBox="0 0 24 24" enable-background="new 0 0 24 24" xml:space="preserve">
<path fill="#999999" d="M9,11.75c-0.69,0-1.25,0.56-1.25,1.25c0,0.689,0.56,1.25,1.25,1.25s1.25-0.561,1.25-1.25
	C10.25,12.31,9.69,11.75,9,11.75z M15,11.75c-0.689,0-1.25,0.56-1.25,1.25c0,0.689,0.561,1.25,1.25,1.25s1.25-0.561,1.25-1.25
	C16.25,12.31,15.689,11.75,15,11.75z M12,2C6.48,2,2,6.48,2,12c0,5.52,4.48,10,10,10c5.52,0,10-4.48,10-10C22,6.48,17.52,2,12,2z
	 M12,20c-4.41,0-8-3.59-8-8c0-0.29,0.02-0.58,0.05-0.86c2.36-1.05,4.23-2.98,5.21-5.37C11.07,8.33,14.05,10,17.42,10
	c0.78,0,1.53-0.09,2.25-0.26C19.88,10.45,20,11.21,20,12C20,16.41,16.41,20,12,20z"/>
<path fill="none" d="M0,0h24v24H0V0z"/>
</svg>
