<?xml version="1.0" encoding="utf-8"?>
<!-- Generator: Adobe Illustrator 16.0.0, SVG Export Plug-In . SVG Version: 6.00 Build 0)  -->
<!DOCTYPE svg PUBLIC "-//W3C//DTD SVG 1.1//EN" "http://www.w3.org/Graphics/SVG/1.1/DTD/svg11.dtd">
<svg version="1.1" id="Layer_1" xmlns="http://www.w3.org/2000/svg" xmlns:xlink="http://www.w3.org/1999/xlink" x="0px" y="0px"
	 width="24px" height="24px" viewBox="0 0 24 24" enable-background="new 0 0 24 24" xml:space="preserve">
<path fill="none" d="M0,0h24v24H0V0z"/>
<g>
	<g>
		<path fill="#999999" d="M12,2C6.215,2,1.505,5.82,1.505,10.515c0,4.209,3.735,7.737,8.777,8.403
			c0.341,0.074,0.808,0.226,0.925,0.517c0.106,0.265,0.069,0.682,0.033,0.948c0,0-0.122,0.743-0.148,0.899
			c-0.045,0.265-0.212,1.037,0.908,0.566c1.119-0.474,6.044-3.56,8.246-6.094c1.52-1.667,2.248-3.36,2.248-5.24
			C22.494,5.82,17.787,2,12,2z M7.893,13.31H5.807c-0.304,0-0.549-0.247-0.549-0.552V8.588c0-0.303,0.245-0.55,0.549-0.55
			c0.304,0,0.552,0.247,0.552,0.55v3.62h1.534c0.304,0,0.549,0.248,0.549,0.55C8.442,13.063,8.197,13.31,7.893,13.31z
			 M10.048,12.758c0,0.305-0.245,0.552-0.549,0.552c-0.304,0-0.549-0.247-0.549-0.552V8.588c0-0.303,0.245-0.55,0.549-0.55
			c0.304,0,0.549,0.247,0.549,0.55V12.758z M15.068,12.758c0,0.238-0.15,0.447-0.377,0.523c-0.055,0.019-0.115,0.028-0.174,0.028
			c-0.172,0-0.336-0.083-0.441-0.222l-2.134-2.908v2.578c0,0.305-0.248,0.552-0.552,0.552c-0.302,0-0.549-0.247-0.549-0.552V8.588
			c0-0.236,0.152-0.447,0.375-0.522c0.057-0.018,0.115-0.028,0.176-0.028c0.171,0,0.337,0.083,0.438,0.22l2.138,2.911V8.588
			c0-0.303,0.244-0.55,0.549-0.55s0.551,0.247,0.551,0.55V12.758z M18.441,10.123c0.305,0,0.553,0.247,0.553,0.551
			c0,0.303-0.248,0.549-0.553,0.549h-1.533v0.984h1.533c0.305,0,0.553,0.248,0.553,0.55c0,0.305-0.248,0.552-0.553,0.552h-2.084
			c-0.303,0-0.551-0.247-0.551-0.552v-2.082c0-0.001,0-0.001,0-0.001s0-0.001,0-0.002V8.591c0-0.001,0-0.002,0-0.002
			c0-0.303,0.248-0.55,0.551-0.55h2.084c0.305,0,0.553,0.247,0.553,0.55c0,0.304-0.248,0.55-0.553,0.55h-1.533v0.984H18.441z"/>
	</g>
</g>
</svg>
