<?xml version="1.0" encoding="utf-8"?>
<!-- Generator: Adobe Illustrator 16.0.0, SVG Export Plug-In . SVG Version: 6.00 Build 0)  -->
<!DOCTYPE svg PUBLIC "-//W3C//DTD SVG 1.1//EN" "http://www.w3.org/Graphics/SVG/1.1/DTD/svg11.dtd">
<svg version="1.1" id="圖層_1" xmlns="http://www.w3.org/2000/svg" xmlns:xlink="http://www.w3.org/1999/xlink" x="0px" y="0px"
	 width="24px" height="24px" viewBox="0 0 24 24" enable-background="new 0 0 24 24" xml:space="preserve">
<path fill="none" d="M0,0h24v24H0V0z"/>
<path fill="#999999" d="M20,4H4C2.9,4,2.01,4.9,2.01,6L2,18c0,1.1,0.9,2,2,2h16c1.1,0,2-0.9,2-2V6C22,4.9,21.1,4,20,4z M20,18H4V8
	l8,5l8-5V18z M12,11L4,6h16L12,11z"/>
<circle fill="none" stroke="#68B8CF" stroke-width="2" stroke-miterlimit="10" cx="-179.833" cy="-96.166" r="47.5"/>
<circle fill="none" stroke="#68B8CF" stroke-width="2" stroke-miterlimit="10" cx="-61.376" cy="-96.222" r="47.5"/>
<circle fill="none" stroke="#68B8CF" stroke-width="2" stroke-miterlimit="10" cx="58.979" cy="-97.111" r="47.5"/>
<circle fill="none" stroke="#68B8CF" stroke-width="2" stroke-miterlimit="10" cx="179.979" cy="-97.111" r="47.5"/>
<g>
	<g>
		<path fill="#00C300" d="M-26.154-100.201c0-15.759-15.799-28.581-35.221-28.581c-19.419,0-35.222,12.822-35.222,28.581
			c0,14.128,12.531,25.965,29.457,28.202c1.146,0.245,2.707,0.759,3.103,1.738c0.356,0.888,0.233,2.281,0.114,3.181
			c0,0-0.413,2.487-0.502,3.019c-0.154,0.889-0.709,3.48,3.05,1.896c3.759-1.583,20.283-11.943,27.672-20.451h-0.002
			C-28.599-88.211-26.154-93.893-26.154-100.201z M-75.163-90.824h-6.999c-1.017,0-1.845-0.828-1.845-1.849v-13.995
			c0-1.018,0.828-1.848,1.845-1.848c1.019,0,1.846,0.83,1.846,1.848v12.149h5.152c1.02,0,1.846,0.828,1.846,1.846
			C-73.316-91.652-74.143-90.824-75.163-90.824z M-67.925-92.673c0,1.021-0.827,1.849-1.845,1.849c-1.018,0-1.846-0.828-1.846-1.849
			v-13.995c0-1.018,0.828-1.848,1.846-1.848c1.018,0,1.845,0.83,1.845,1.848V-92.673z M-51.078-92.673
			c0,0.799-0.506,1.502-1.263,1.754c-0.189,0.063-0.388,0.095-0.586,0.095c-0.577,0-1.127-0.275-1.475-0.74l-7.173-9.765v8.656
			c0,1.021-0.827,1.849-1.846,1.849c-1.019,0-1.847-0.828-1.847-1.849v-13.995c0-0.795,0.508-1.499,1.263-1.752
			c0.189-0.063,0.387-0.096,0.585-0.096c0.576,0,1.13,0.276,1.475,0.741l7.174,9.769v-8.662c0-1.018,0.828-1.848,1.847-1.848
			c1.019,0,1.847,0.83,1.847,1.848V-92.673z M-39.753-101.516c1.019,0,1.847,0.826,1.847,1.848c0,1.017-0.828,1.846-1.847,1.846
			h-5.151v3.304h5.151c1.016,0,1.847,0.828,1.847,1.846c0,1.021-0.831,1.849-1.847,1.849h-6.999c-1.017,0-1.847-0.828-1.847-1.849
			v-6.991c0-0.002,0-0.002,0-0.004c0,0,0-0.004,0-0.005v-6.995c0-1.018,0.829-1.848,1.847-1.848h6.999
			c1.019,0,1.847,0.83,1.847,1.848c0,1.02-0.828,1.848-1.847,1.848h-5.151v3.305H-39.753z"/>
	</g>
</g>
<g>
	<polygon fill="#4FB2D9" points="91.979,-117.974 91.979,-120.111 25.979,-120.111 25.979,-117.345 58.969,-91.687 	"/>
	<polygon fill="#4FB2D9" points="25.979,-113.544 25.979,-75.462 47.873,-96.515 	"/>
	<polygon fill="#4FB2D9" points="91.979,-75.782 91.979,-114.139 70.158,-96.763 	"/>
	<polygon fill="#4FB2D9" points="58.99,-87.869 50.268,-94.653 28.902,-74.111 89.389,-74.111 67.791,-94.877 	"/>
</g>
<g>
	<path fill="#4FB2D9" d="M163.458-90.333V-65c0,1.656,1.343,3,3,3h28c1.657,0,3-1.344,3-3v-25.333H163.458z M191.958-68h-23v-4h23
		V-68z M191.958-74h-23v-4h23V-74z M191.958-81h-23v-4h23V-81z"/>
	<path fill="#4FB2D9" d="M197.166-128c0-1.657-1.343-3-3-3h-29c-1.657,0-3,1.343-3,3v9.334h35V-128z"/>
	<path fill="#4FB2D9" d="M210.833-115h-62c-1.657,0-3,1.343-3,3v31c0,1.656,1.343,3,3,3h10.334v-16H200.5v16h10.333
		c1.657,0,3-1.344,3-3v-31C213.833-113.657,212.49-115,210.833-115z M155.083-101.5c-1.979,0-3.583-1.604-3.583-3.583
		c0-1.979,1.604-3.583,3.583-3.583c1.979,0,3.583,1.604,3.583,3.583C158.666-103.104,157.063-101.5,155.083-101.5z"/>
</g>
</svg>
