<?xml version="1.0" encoding="utf-8"?>
<!-- Generator: Adobe Illustrator 16.0.0, SVG Export Plug-In . SVG Version: 6.00 Build 0)  -->
<!DOCTYPE svg PUBLIC "-//W3C//DTD SVG 1.1//EN" "http://www.w3.org/Graphics/SVG/1.1/DTD/svg11.dtd">
<svg version="1.1" id="圖層_1" xmlns="http://www.w3.org/2000/svg" xmlns:xlink="http://www.w3.org/1999/xlink" x="0px" y="0px"
	 width="117px" height="47px" viewBox="0 0 117 47" enable-background="new 0 0 117 47" xml:space="preserve">
<path fill="#FFFFFF" d="M29.932,14.962c0,3.42-2.773,6.193-6.191,6.193c-3.423,0-6.194-2.773-6.194-6.193
	c0-3.418,2.771-6.19,6.194-6.19C27.159,8.772,29.932,11.544,29.932,14.962z"/>
<path fill="#FFFFFF" d="M13.349,6.522c-0.05-3.48-2.884-6.287-6.378-6.287S0.64,3.042,0.589,6.522H0.584v0.093v0.006v30.154h12.769
	V6.621V6.615V6.522H13.349z"/>
<path fill="#FFFFFF" d="M0.584,40.292c0,3.524,2.859,6.382,6.386,6.382s6.383-2.857,6.383-6.382v-0.003H0.584V40.292z"/>
<path fill="#FFFFFF" d="M43.473,11.748v13.426h-2.851V11.748H43.473z M43.574,18.376l5.143-6.629h3.758l-5.607,6.629l5.341,6.797
	h-3.768L43.574,18.376z"/>
<path fill="#FFFFFF" d="M56.625,15.329v9.845h-2.725V11.748h3.66L62.9,21.751V11.748h2.726v13.426h-3.522L56.625,15.329z"/>
<path fill="#FFFFFF" d="M71.371,14.138h-4.28v-2.39h11.576v2.39h-4.444v11.036h-2.852V14.138z"/>
<path fill="#FFFFFF" d="M44.345,31.084h-4.278v-2.39h11.577v2.39h-4.446V42.12h-2.852V31.084z"/>
<path fill="#FFFFFF" d="M55.973,37.016v5.104h-2.854V28.694h6.553c1.882,0,3.197,0.241,3.943,0.718
	c0.504,0.321,0.898,0.745,1.174,1.273c0.279,0.529,0.419,1.111,0.419,1.745c0,1.28-0.323,2.265-0.974,2.952
	c-0.4,0.422-0.93,0.742-1.593,0.965c0.524,0.177,0.921,0.37,1.19,0.58c0.27,0.211,0.511,0.52,0.728,0.924
	c0.163,0.316,0.28,0.623,0.349,0.922c0.068,0.297,0.127,0.739,0.172,1.321c0.078,0.965,0.188,1.638,0.325,2.025h-3.208
	c-0.096-0.313-0.195-0.949-0.293-1.907c-0.08-0.786-0.223-1.39-0.429-1.807c-0.206-0.416-0.52-0.741-0.94-0.979
	c-0.516-0.279-1.27-0.418-2.261-0.412H55.973z M55.973,34.627h4.014c0.666,0,1.145-0.102,1.426-0.297
	c0.425-0.299,0.64-0.819,0.64-1.553c0-0.819-0.321-1.346-0.965-1.574c-0.223-0.079-0.59-0.119-1.101-0.119h-4.014V34.627z"/>
<path fill="#FFFFFF" d="M66.222,42.12l5.558-13.426h3.296l5.556,13.426h-3.352l-1.3-3.107h-5.104l-1.299,3.107H66.222z
	 M73.433,31.92l-1.918,4.704h3.825L73.433,31.92z"/>
<path fill="#FFFFFF" d="M93.576,28.694L87.703,42.12h-2.862l-5.665-13.426h3.217l3.955,10.101l4.013-10.101H93.576z"/>
<path fill="#FFFFFF" d="M105.066,28.694v2.39h-3.729c-0.977,0-1.688,0.07-2.131,0.201c-0.44,0.135-0.811,0.396-1.105,0.783
	c-0.198,0.264-0.332,0.527-0.403,0.799c-0.073,0.268-0.136,0.727-0.187,1.375h7.555v2.39h-7.555c0.097,1.161,0.436,1.968,1.012,2.42
	c0.578,0.453,1.559,0.679,2.94,0.679h3.603v2.39h-3.729c-1.01,0-1.899-0.062-2.668-0.186c-1.205-0.197-2.166-0.726-2.881-1.583
	c-1.016-1.234-1.525-2.904-1.525-5.019c0-2.339,0.719-4.159,2.154-5.458c0.494-0.44,1.018-0.746,1.574-0.919
	c0.559-0.175,1.305-0.262,2.244-0.262H105.066z"/>
<path fill="#FFFFFF" d="M107.168,28.694h2.855v7.535c0.037,0.957,0.08,1.593,0.127,1.907c0.092,0.611,0.387,1.029,0.881,1.255
	c0.495,0.227,1.364,0.339,2.611,0.339h2.744v2.39h-3.039c-1.438,0.008-2.479-0.073-3.129-0.245c-1.482-0.434-2.42-1.374-2.813-2.823
	c-0.152-0.556-0.23-1.497-0.238-2.822V28.694z"/>
</svg>
