<?xml version="1.0" encoding="utf-8"?>
<!-- Generator: Adobe Illustrator 16.0.0, SVG Export Plug-In . SVG Version: 6.00 Build 0)  -->
<!DOCTYPE svg PUBLIC "-//W3C//DTD SVG 1.1//EN" "http://www.w3.org/Graphics/SVG/1.1/DTD/svg11.dtd">
<svg version="1.1" id="圖層_1" xmlns="http://www.w3.org/2000/svg" xmlns:xlink="http://www.w3.org/1999/xlink" x="0px" y="0px"
	 width="117px" height="47px" viewBox="0 0 117 47" enable-background="new 0 0 117 47" xml:space="preserve">
<path fill="#6282BC" d="M29.932,14.962c0,3.42-2.773,6.193-6.191,6.193c-3.423,0-6.194-2.773-6.194-6.193
	c0-3.418,2.771-6.19,6.194-6.19C27.159,8.772,29.932,11.544,29.932,14.962z"/>
<path fill="#6282BC" d="M13.348,6.522c-0.05-3.481-2.882-6.287-6.378-6.287c-3.496,0-6.332,2.806-6.381,6.287H0.584v0.093v0.006
	v30.154h12.769V6.621V6.615V6.522H13.348z"/>
<path fill="#6282BC" d="M0.584,40.292c0,3.524,2.859,6.382,6.386,6.382c3.527,0,6.383-2.857,6.383-6.382v-0.003H0.584V40.292z"/>
<path fill="#6282BC" d="M43.473,11.748v13.426h-2.851V11.748H43.473z M43.574,18.376l5.143-6.629h3.758l-5.607,6.629l5.341,6.797
	h-3.768L43.574,18.376z"/>
<path fill="#6282BC" d="M56.625,15.329v9.845H53.9V11.748h3.66l5.34,10.003V11.748h2.726v13.426h-3.522L56.625,15.329z"/>
<path fill="#6282BC" d="M71.371,14.138h-4.28v-2.39h11.576v2.39h-4.444v11.036h-2.852V14.138z"/>
<g>
	<path fill="#95D3CF" d="M44.345,31.084h-4.278v-2.391h11.577v2.391h-4.446V42.12h-2.852L44.345,31.084L44.345,31.084z"/>
	<path fill="#95D3CF" d="M55.973,37.016v5.104h-2.854V28.693h6.553c1.883,0,3.197,0.242,3.943,0.719
		c0.504,0.32,0.898,0.745,1.174,1.273c0.279,0.528,0.419,1.11,0.419,1.744c0,1.28-0.323,2.266-0.974,2.952
		c-0.4,0.423-0.93,0.742-1.594,0.966c0.524,0.176,0.922,0.369,1.19,0.58c0.271,0.211,0.511,0.52,0.728,0.924
		c0.164,0.315,0.28,0.623,0.35,0.922c0.068,0.297,0.127,0.738,0.172,1.32c0.078,0.965,0.188,1.639,0.324,2.025h-3.207
		c-0.096-0.313-0.195-0.949-0.293-1.907c-0.08-0.786-0.223-1.39-0.43-1.808c-0.205-0.416-0.52-0.74-0.939-0.979
		c-0.516-0.279-1.27-0.418-2.261-0.412h-2.301V37.016z M55.973,34.627h4.013c0.666,0,1.146-0.102,1.427-0.297
		c0.425-0.299,0.64-0.818,0.64-1.553c0-0.819-0.32-1.346-0.965-1.574c-0.223-0.079-0.59-0.119-1.102-0.119h-4.013V34.627z"/>
	<path fill="#95D3CF" d="M66.223,42.12l5.557-13.427h3.297l5.556,13.427h-3.353l-1.299-3.106h-5.104l-1.299,3.106H66.223z
		 M73.434,31.92l-1.918,4.704h3.824L73.434,31.92z"/>
	<path fill="#95D3CF" d="M93.576,28.693L87.703,42.12h-2.862l-5.665-13.427h3.217l3.955,10.102l4.014-10.102H93.576z"/>
	<path fill="#95D3CF" d="M105.066,28.693v2.391h-3.729c-0.978,0-1.688,0.07-2.131,0.201c-0.44,0.135-0.812,0.396-1.104,0.783
		c-0.199,0.264-0.332,0.527-0.403,0.799c-0.073,0.268-0.136,0.727-0.187,1.375h7.555v2.39h-7.555
		c0.096,1.161,0.436,1.968,1.012,2.421c0.578,0.452,1.559,0.678,2.939,0.678h3.604v2.391h-3.729c-1.01,0-1.899-0.063-2.668-0.186
		c-1.205-0.197-2.166-0.727-2.881-1.584c-1.017-1.233-1.524-2.904-1.524-5.019c0-2.339,0.719-4.159,2.153-5.458
		c0.494-0.439,1.019-0.746,1.574-0.919c0.559-0.175,1.305-0.263,2.243-0.263H105.066z"/>
	<path fill="#95D3CF" d="M107.168,28.693h2.855v7.535c0.037,0.957,0.08,1.594,0.127,1.908c0.092,0.61,0.387,1.028,0.881,1.254
		c0.494,0.228,1.363,0.34,2.611,0.34h2.744v2.39h-3.039c-1.438,0.008-2.479-0.073-3.13-0.245c-1.481-0.434-2.42-1.374-2.813-2.822
		c-0.151-0.557-0.229-1.498-0.237-2.822L107.168,28.693L107.168,28.693z"/>
</g>
</svg>
