<?xml version="1.0" encoding="utf-8"?>
<!-- Generator: Adobe Illustrator 15.1.0, SVG Export Plug-In . SVG Version: 6.00 Build 0)  -->
<!DOCTYPE svg PUBLIC "-//W3C//DTD SVG 1.1//EN" "http://www.w3.org/Graphics/SVG/1.1/DTD/svg11.dtd">
<svg version="1.1" id="Layer_1" xmlns:sketch="http://www.bohemiancoding.com/sketch/ns"
	 xmlns="http://www.w3.org/2000/svg" xmlns:xlink="http://www.w3.org/1999/xlink" x="0px" y="0px" width="24px" height="24px"
	 viewBox="0 0 24 24" enable-background="new 0 0 24 24" xml:space="preserve">
<title></title>
<desc></desc>
<g id="miu">
	<g id="Artboard-1" transform="translate(-431.000000, -191.000000)">
		<g id="slice" transform="translate(215.000000, 119.000000)">
		</g>
		<path id="circle-next-arrow-disclosure-outline-stroke" fill="#929292" d="M455,202.5c0-6.351-5.148-11.5-11.5-11.5
			c-6.351,0-11.5,5.149-11.5,11.5c0,6.352,5.149,11.5,11.5,11.5C449.852,214,455,208.852,455,202.5z M433,202.5
			c0-5.799,4.701-10.5,10.5-10.5s10.5,4.701,10.5,10.5s-4.701,10.5-10.5,10.5S433,208.299,433,202.5z M442.343,196.843l-1.415,1.414
			l4.243,4.243l-4.243,4.242l1.415,1.414L448,202.5L442.343,196.843z"/>
	</g>
</g>
</svg>
