<?xml version="1.0" encoding="utf-8"?>
<!-- Generator: Adobe Illustrator 15.1.0, SVG Export Plug-In . SVG Version: 6.00 Build 0)  -->
<!DOCTYPE svg PUBLIC "-//W3C//DTD SVG 1.1//EN" "http://www.w3.org/Graphics/SVG/1.1/DTD/svg11.dtd">
<svg version="1.1" id="Layer_1" xmlns:sketch="http://www.bohemiancoding.com/sketch/ns"
	 xmlns="http://www.w3.org/2000/svg" xmlns:xlink="http://www.w3.org/1999/xlink" x="0px" y="0px" width="24px" height="24px"
	 viewBox="0 0 24 24" enable-background="new 0 0 24 24" xml:space="preserve">
<title></title>
<desc></desc>
<g id="miu">
	<g id="Artboard-1" transform="translate(-431.000000, -191.000000)">
		<g id="slice" transform="translate(215.000000, 119.000000)">
		</g>
		<path id="circle-next-arrow-disclosure-outline-stroke" fill="#929292" d="M443.5,214c6.352,0,11.5-5.148,11.5-11.5
			c0-6.351-5.148-11.5-11.5-11.5s-11.5,5.149-11.5,11.5C432,208.852,437.148,214,443.5,214z M443.5,213
			c-5.799,0-10.5-4.701-10.5-10.5s4.701-10.5,10.5-10.5s10.5,4.701,10.5,10.5S449.299,213,443.5,213z M439,202.5l5.656,5.656
			l1.415-1.414l-4.243-4.242l4.243-4.243l-1.415-1.414L439,202.5z"/>
	</g>
</g>
</svg>
