<?xml version="1.0" encoding="utf-8"?>
<!-- Generator: Adobe Illustrator 16.0.0, SVG Export Plug-In . SVG Version: 6.00 Build 0)  -->
<!DOCTYPE svg PUBLIC "-//W3C//DTD SVG 1.1//EN" "http://www.w3.org/Graphics/SVG/1.1/DTD/svg11.dtd">
<svg version="1.1" id="圖層_1" xmlns="http://www.w3.org/2000/svg" xmlns:xlink="http://www.w3.org/1999/xlink" x="0px" y="0px"
	 width="26px" height="26px" viewBox="0 0 26 26" enable-background="new 0 0 26 26" xml:space="preserve">
<path fill="#FFFFFF" d="M13,0.083c-7.176,0-13,5.824-13,13c0,7.175,5.824,13,13,13c7.176,0,13-5.825,13-13
	C26,5.908,20.176,0.083,13,0.083z M14.299,22.184H11.7v-2.6h2.599V22.184z M16.99,12.108l-1.17,1.196
	c-0.936,0.95-1.521,1.729-1.521,3.679H11.7v-0.649c0-1.43,0.585-2.73,1.521-3.68l1.612-1.638c0.48-0.468,0.768-1.118,0.768-1.833
	c0-1.43-1.17-2.6-2.6-2.6c-1.43,0-2.6,1.17-2.6,2.6H7.799c0-2.873,2.327-5.2,5.2-5.2c2.874,0,5.2,2.327,5.2,5.2
	C18.199,10.327,17.732,11.368,16.99,12.108z"/>
</svg>
